<?xml version="1.0" encoding="utf-8" standalone="no"?>
<!DOCTYPE svg PUBLIC "-//W3C//DTD SVG 1.1//EN"
  "http://www.w3.org/Graphics/SVG/1.1/DTD/svg11.dtd">
<svg xmlns:xlink="http://www.w3.org/1999/xlink" width="360pt" height="360pt" viewBox="0 0 360 360" xmlns="http://www.w3.org/2000/svg" version="1.1">
 <metadata>
  <rdf:RDF xmlns:dc="http://purl.org/dc/elements/1.1/" xmlns:cc="http://creativecommons.org/ns#" xmlns:rdf="http://www.w3.org/1999/02/22-rdf-syntax-ns#">
   <cc:Work>
    <dc:type rdf:resource="http://purl.org/dc/dcmitype/StillImage"/>
    <dc:date>2022-06-28T17:57:27.656657</dc:date>
    <dc:format>image/svg+xml</dc:format>
    <dc:creator>
     <cc:Agent>
      <dc:title>Matplotlib v3.5.1, https://matplotlib.org/</dc:title>
     </cc:Agent>
    </dc:creator>
   </cc:Work>
  </rdf:RDF>
 </metadata>
 <defs>
  <style type="text/css">*{stroke-linejoin: round; stroke-linecap: butt}</style>
 </defs>
 <g id="figure_1">
  <g id="patch_1">
   <path d="M 0 360 
L 360 360 
L 360 0 
L 0 0 
z
" style="fill: #ffffff"/>
  </g>
  <g id="axes_1">
   <g id="patch_2">
    <path d="M 45 320.4 
L 324 320.4 
L 324 43.2 
L 45 43.2 
z
" style="fill: #ffffff"/>
   </g>
   <g id="PolyCollection_1">
    <defs>
     <path id="md17e66ab1f" d="M 48.617647 -42.317647 
L 48.617647 -42.317647 
L 51.335294 -22.411911 
L 54.052941 -22.411911 
L 56.770588 -22.411911 
L 59.488235 -22.411911 
L 62.205882 -27.199146 
L 64.923529 -27.199146 
L 67.641176 -36.695377 
L 70.358824 -36.695377 
L 73.076471 -35.976216 
L 75.794118 -35.976216 
L 78.511765 -35.976216 
L 81.229412 -35.976216 
L 83.947059 -51.537253 
L 86.664706 -60.214709 
L 89.382353 -73.790587 
L 92.1 -87.224168 
L 94.817647 -87.224168 
L 97.535294 -87.224168 
L 100.252941 -114.517005 
L 102.970588 -123.349288 
L 105.688235 -123.349288 
L 108.405882 -123.349288 
L 111.123529 -130.608908 
L 113.841176 -132.613824 
L 116.558824 -139.74392 
L 119.276471 -139.74392 
L 121.994118 -142.774122 
L 124.711765 -163.781839 
L 127.429412 -163.781839 
L 130.147059 -165.793761 
L 132.864706 -172.362471 
L 135.582353 -172.362471 
L 138.3 -172.362471 
L 141.017647 -177.960901 
L 143.735294 -182.499019 
L 146.452941 -182.499019 
L 149.170588 -182.499019 
L 151.888235 -184.892257 
L 154.605882 -198.867295 
L 157.323529 -198.867295 
L 160.041176 -198.867295 
L 162.758824 -198.425548 
L 165.476471 -198.425548 
L 168.194118 -210.882911 
L 170.911765 -212.117007 
L 173.629412 -212.117007 
L 176.347059 -213.904317 
L 179.064706 -213.904317 
L 181.782353 -213.904317 
L 184.5 -224.712713 
L 187.217647 -224.712713 
L 189.935294 -224.712713 
L 192.652941 -224.712713 
L 195.370588 -227.900419 
L 198.088235 -231.42314 
L 200.805882 -231.42314 
L 203.523529 -238.913708 
L 206.241176 -238.913708 
L 208.958824 -238.913708 
L 211.676471 -251.839166 
L 214.394118 -251.839166 
L 217.111765 -254.475719 
L 219.829412 -254.475719 
L 222.547059 -254.475719 
L 225.264706 -254.475719 
L 227.982353 -254.475719 
L 230.7 -255.092037 
L 233.417647 -255.092037 
L 236.135294 -261.594599 
L 238.852941 -262.535846 
L 241.570588 -262.535846 
L 244.288235 -262.535846 
L 247.005882 -264.351716 
L 249.723529 -264.351716 
L 252.441176 -267.089515 
L 255.158824 -267.089515 
L 257.876471 -267.089515 
L 260.594118 -267.089515 
L 263.311765 -267.089515 
L 266.029412 -294.315773 
L 268.747059 -294.315773 
L 271.464706 -296.769653 
L 274.182353 -296.769653 
L 276.9 -296.769653 
L 279.617647 -296.769653 
L 282.335294 -296.769653 
L 285.052941 -296.769653 
L 287.770588 -296.769653 
L 290.488235 -296.769653 
L 293.205882 -296.769653 
L 295.923529 -296.769653 
L 298.641176 -296.769653 
L 301.358824 -296.769653 
L 304.076471 -314.082353 
L 306.794118 -314.082353 
L 309.511765 -314.082353 
L 312.229412 -314.082353 
L 314.947059 -314.082353 
L 317.664706 -314.082353 
L 320.382353 -314.082353 
L 320.382353 -314.082353 
L 320.382353 -314.082353 
L 317.664706 -314.082353 
L 314.947059 -314.082353 
L 312.229412 -314.082353 
L 309.511765 -314.082353 
L 306.794118 -314.082353 
L 304.076471 -314.082353 
L 301.358824 -314.082353 
L 298.641176 -314.082353 
L 295.923529 -314.082353 
L 293.205882 -314.082353 
L 290.488235 -314.082353 
L 287.770588 -314.082353 
L 285.052941 -314.082353 
L 282.335294 -314.082353 
L 279.617647 -314.082353 
L 276.9 -314.082353 
L 274.182353 -314.082353 
L 271.464706 -314.082353 
L 268.747059 -314.082353 
L 266.029412 -314.082353 
L 263.311765 -314.082353 
L 260.594118 -314.082353 
L 257.876471 -314.082353 
L 255.158824 -314.082353 
L 252.441176 -314.082353 
L 249.723529 -314.082353 
L 247.005882 -314.082353 
L 244.288235 -314.082353 
L 241.570588 -314.082353 
L 238.852941 -314.082353 
L 236.135294 -314.082353 
L 233.417647 -314.082353 
L 230.7 -314.082353 
L 227.982353 -314.082353 
L 225.264706 -314.082353 
L 222.547059 -314.082353 
L 219.829412 -314.082353 
L 217.111765 -314.082353 
L 214.394118 -314.082353 
L 211.676471 -314.082353 
L 208.958824 -314.082353 
L 206.241176 -314.082353 
L 203.523529 -314.082353 
L 200.805882 -314.082353 
L 198.088235 -314.082353 
L 195.370588 -306.436836 
L 192.652941 -300.565719 
L 189.935294 -300.565719 
L 187.217647 -300.565719 
L 184.5 -300.565719 
L 181.782353 -294.809409 
L 179.064706 -294.809409 
L 176.347059 -294.809409 
L 173.629412 -293.57711 
L 170.911765 -293.57711 
L 168.194118 -289.375913 
L 165.476471 -286.82151 
L 162.758824 -286.82151 
L 160.041176 -274.460259 
L 157.323529 -274.460259 
L 154.605882 -274.460259 
L 151.888235 -274.847062 
L 149.170588 -273.61677 
L 146.452941 -273.61677 
L 143.735294 -273.61677 
L 141.017647 -262.837242 
L 138.3 -258.02597 
L 135.582353 -258.02597 
L 132.864706 -258.02597 
L 130.147059 -252.51625 
L 127.429412 -249.092877 
L 124.711765 -249.092877 
L 121.994118 -256.512359 
L 119.276471 -255.919032 
L 116.558824 -255.919032 
L 113.841176 -248.296186 
L 111.123529 -247.281495 
L 108.405882 -250.011703 
L 105.688235 -250.011703 
L 102.970588 -250.011703 
L 100.252941 -246.161633 
L 97.535294 -227.125058 
L 94.817647 -227.125058 
L 92.1 -227.125058 
L 89.382353 -222.440992 
L 86.664706 -214.275693 
L 83.947059 -212.082561 
L 81.229412 -205.125951 
L 78.511765 -205.125951 
L 75.794118 -205.125951 
L 73.076471 -205.125951 
L 70.358824 -192.328359 
L 67.641176 -192.328359 
L 64.923529 -190.436355 
L 62.205882 -190.436355 
L 59.488235 -174.964766 
L 56.770588 -174.964766 
L 54.052941 -174.964766 
L 51.335294 -174.964766 
L 48.617647 -42.317647 
z
" style="stroke: #808080; stroke-opacity: 0.3"/>
    </defs>
    <g clip-path="url(#paf542313a8)">
     <use xlink:href="#md17e66ab1f" x="0" y="360" style="fill: #808080; fill-opacity: 0.3; stroke: #808080; stroke-opacity: 0.3"/>
    </g>
   </g>
   <g id="matplotlib.axis_1">
    <g id="xtick_1">
     <g id="line2d_1">
      <defs>
       <path id="m42a1101f38" d="M 0 0 
L 0 3.5 
" style="stroke: #000000; stroke-width: 0.8"/>
      </defs>
      <g>
       <use xlink:href="#m42a1101f38" x="48.617647" y="320.4" style="stroke: #000000; stroke-width: 0.8"/>
      </g>
     </g>
     <g id="text_1">
      <!-- 0.0 -->
      <g transform="translate(40.666085 334.998438)scale(0.1 -0.1)">
       <defs>
        <path id="DejaVuSans-30" d="M 2034 4250 
Q 1547 4250 1301 3770 
Q 1056 3291 1056 2328 
Q 1056 1369 1301 889 
Q 1547 409 2034 409 
Q 2525 409 2770 889 
Q 3016 1369 3016 2328 
Q 3016 3291 2770 3770 
Q 2525 4250 2034 4250 
z
M 2034 4750 
Q 2819 4750 3233 4129 
Q 3647 3509 3647 2328 
Q 3647 1150 3233 529 
Q 2819 -91 2034 -91 
Q 1250 -91 836 529 
Q 422 1150 422 2328 
Q 422 3509 836 4129 
Q 1250 4750 2034 4750 
z
" transform="scale(0.015625)"/>
        <path id="DejaVuSans-2e" d="M 684 794 
L 1344 794 
L 1344 0 
L 684 0 
L 684 794 
z
" transform="scale(0.015625)"/>
       </defs>
       <use xlink:href="#DejaVuSans-30"/>
       <use xlink:href="#DejaVuSans-2e" x="63.623047"/>
       <use xlink:href="#DejaVuSans-30" x="95.410156"/>
      </g>
     </g>
    </g>
    <g id="xtick_2">
     <g id="line2d_2">
      <g>
       <use xlink:href="#m42a1101f38" x="102.970588" y="320.4" style="stroke: #000000; stroke-width: 0.8"/>
      </g>
     </g>
     <g id="text_2">
      <!-- 0.2 -->
      <g transform="translate(95.019026 334.998438)scale(0.1 -0.1)">
       <defs>
        <path id="DejaVuSans-32" d="M 1228 531 
L 3431 531 
L 3431 0 
L 469 0 
L 469 531 
Q 828 903 1448 1529 
Q 2069 2156 2228 2338 
Q 2531 2678 2651 2914 
Q 2772 3150 2772 3378 
Q 2772 3750 2511 3984 
Q 2250 4219 1831 4219 
Q 1534 4219 1204 4116 
Q 875 4013 500 3803 
L 500 4441 
Q 881 4594 1212 4672 
Q 1544 4750 1819 4750 
Q 2544 4750 2975 4387 
Q 3406 4025 3406 3419 
Q 3406 3131 3298 2873 
Q 3191 2616 2906 2266 
Q 2828 2175 2409 1742 
Q 1991 1309 1228 531 
z
" transform="scale(0.015625)"/>
       </defs>
       <use xlink:href="#DejaVuSans-30"/>
       <use xlink:href="#DejaVuSans-2e" x="63.623047"/>
       <use xlink:href="#DejaVuSans-32" x="95.410156"/>
      </g>
     </g>
    </g>
    <g id="xtick_3">
     <g id="line2d_3">
      <g>
       <use xlink:href="#m42a1101f38" x="157.323529" y="320.4" style="stroke: #000000; stroke-width: 0.8"/>
      </g>
     </g>
     <g id="text_3">
      <!-- 0.4 -->
      <g transform="translate(149.371967 334.998438)scale(0.1 -0.1)">
       <defs>
        <path id="DejaVuSans-34" d="M 2419 4116 
L 825 1625 
L 2419 1625 
L 2419 4116 
z
M 2253 4666 
L 3047 4666 
L 3047 1625 
L 3713 1625 
L 3713 1100 
L 3047 1100 
L 3047 0 
L 2419 0 
L 2419 1100 
L 313 1100 
L 313 1709 
L 2253 4666 
z
" transform="scale(0.015625)"/>
       </defs>
       <use xlink:href="#DejaVuSans-30"/>
       <use xlink:href="#DejaVuSans-2e" x="63.623047"/>
       <use xlink:href="#DejaVuSans-34" x="95.410156"/>
      </g>
     </g>
    </g>
    <g id="xtick_4">
     <g id="line2d_4">
      <g>
       <use xlink:href="#m42a1101f38" x="211.676471" y="320.4" style="stroke: #000000; stroke-width: 0.8"/>
      </g>
     </g>
     <g id="text_4">
      <!-- 0.6 -->
      <g transform="translate(203.724908 334.998438)scale(0.1 -0.1)">
       <defs>
        <path id="DejaVuSans-36" d="M 2113 2584 
Q 1688 2584 1439 2293 
Q 1191 2003 1191 1497 
Q 1191 994 1439 701 
Q 1688 409 2113 409 
Q 2538 409 2786 701 
Q 3034 994 3034 1497 
Q 3034 2003 2786 2293 
Q 2538 2584 2113 2584 
z
M 3366 4563 
L 3366 3988 
Q 3128 4100 2886 4159 
Q 2644 4219 2406 4219 
Q 1781 4219 1451 3797 
Q 1122 3375 1075 2522 
Q 1259 2794 1537 2939 
Q 1816 3084 2150 3084 
Q 2853 3084 3261 2657 
Q 3669 2231 3669 1497 
Q 3669 778 3244 343 
Q 2819 -91 2113 -91 
Q 1303 -91 875 529 
Q 447 1150 447 2328 
Q 447 3434 972 4092 
Q 1497 4750 2381 4750 
Q 2619 4750 2861 4703 
Q 3103 4656 3366 4563 
z
" transform="scale(0.015625)"/>
       </defs>
       <use xlink:href="#DejaVuSans-30"/>
       <use xlink:href="#DejaVuSans-2e" x="63.623047"/>
       <use xlink:href="#DejaVuSans-36" x="95.410156"/>
      </g>
     </g>
    </g>
    <g id="xtick_5">
     <g id="line2d_5">
      <g>
       <use xlink:href="#m42a1101f38" x="266.029412" y="320.4" style="stroke: #000000; stroke-width: 0.8"/>
      </g>
     </g>
     <g id="text_5">
      <!-- 0.8 -->
      <g transform="translate(258.077849 334.998438)scale(0.1 -0.1)">
       <defs>
        <path id="DejaVuSans-38" d="M 2034 2216 
Q 1584 2216 1326 1975 
Q 1069 1734 1069 1313 
Q 1069 891 1326 650 
Q 1584 409 2034 409 
Q 2484 409 2743 651 
Q 3003 894 3003 1313 
Q 3003 1734 2745 1975 
Q 2488 2216 2034 2216 
z
M 1403 2484 
Q 997 2584 770 2862 
Q 544 3141 544 3541 
Q 544 4100 942 4425 
Q 1341 4750 2034 4750 
Q 2731 4750 3128 4425 
Q 3525 4100 3525 3541 
Q 3525 3141 3298 2862 
Q 3072 2584 2669 2484 
Q 3125 2378 3379 2068 
Q 3634 1759 3634 1313 
Q 3634 634 3220 271 
Q 2806 -91 2034 -91 
Q 1263 -91 848 271 
Q 434 634 434 1313 
Q 434 1759 690 2068 
Q 947 2378 1403 2484 
z
M 1172 3481 
Q 1172 3119 1398 2916 
Q 1625 2713 2034 2713 
Q 2441 2713 2670 2916 
Q 2900 3119 2900 3481 
Q 2900 3844 2670 4047 
Q 2441 4250 2034 4250 
Q 1625 4250 1398 4047 
Q 1172 3844 1172 3481 
z
" transform="scale(0.015625)"/>
       </defs>
       <use xlink:href="#DejaVuSans-30"/>
       <use xlink:href="#DejaVuSans-2e" x="63.623047"/>
       <use xlink:href="#DejaVuSans-38" x="95.410156"/>
      </g>
     </g>
    </g>
    <g id="xtick_6">
     <g id="line2d_6">
      <g>
       <use xlink:href="#m42a1101f38" x="320.382353" y="320.4" style="stroke: #000000; stroke-width: 0.8"/>
      </g>
     </g>
     <g id="text_6">
      <!-- 1.0 -->
      <g transform="translate(312.43079 334.998438)scale(0.1 -0.1)">
       <defs>
        <path id="DejaVuSans-31" d="M 794 531 
L 1825 531 
L 1825 4091 
L 703 3866 
L 703 4441 
L 1819 4666 
L 2450 4666 
L 2450 531 
L 3481 531 
L 3481 0 
L 794 0 
L 794 531 
z
" transform="scale(0.015625)"/>
       </defs>
       <use xlink:href="#DejaVuSans-31"/>
       <use xlink:href="#DejaVuSans-2e" x="63.623047"/>
       <use xlink:href="#DejaVuSans-30" x="95.410156"/>
      </g>
     </g>
    </g>
    <g id="text_7">
     <!-- False Positive Rate -->
     <g transform="translate(138.033594 348.676562)scale(0.1 -0.1)">
      <defs>
       <path id="DejaVuSans-46" d="M 628 4666 
L 3309 4666 
L 3309 4134 
L 1259 4134 
L 1259 2759 
L 3109 2759 
L 3109 2228 
L 1259 2228 
L 1259 0 
L 628 0 
L 628 4666 
z
" transform="scale(0.015625)"/>
       <path id="DejaVuSans-61" d="M 2194 1759 
Q 1497 1759 1228 1600 
Q 959 1441 959 1056 
Q 959 750 1161 570 
Q 1363 391 1709 391 
Q 2188 391 2477 730 
Q 2766 1069 2766 1631 
L 2766 1759 
L 2194 1759 
z
M 3341 1997 
L 3341 0 
L 2766 0 
L 2766 531 
Q 2569 213 2275 61 
Q 1981 -91 1556 -91 
Q 1019 -91 701 211 
Q 384 513 384 1019 
Q 384 1609 779 1909 
Q 1175 2209 1959 2209 
L 2766 2209 
L 2766 2266 
Q 2766 2663 2505 2880 
Q 2244 3097 1772 3097 
Q 1472 3097 1187 3025 
Q 903 2953 641 2809 
L 641 3341 
Q 956 3463 1253 3523 
Q 1550 3584 1831 3584 
Q 2591 3584 2966 3190 
Q 3341 2797 3341 1997 
z
" transform="scale(0.015625)"/>
       <path id="DejaVuSans-6c" d="M 603 4863 
L 1178 4863 
L 1178 0 
L 603 0 
L 603 4863 
z
" transform="scale(0.015625)"/>
       <path id="DejaVuSans-73" d="M 2834 3397 
L 2834 2853 
Q 2591 2978 2328 3040 
Q 2066 3103 1784 3103 
Q 1356 3103 1142 2972 
Q 928 2841 928 2578 
Q 928 2378 1081 2264 
Q 1234 2150 1697 2047 
L 1894 2003 
Q 2506 1872 2764 1633 
Q 3022 1394 3022 966 
Q 3022 478 2636 193 
Q 2250 -91 1575 -91 
Q 1294 -91 989 -36 
Q 684 19 347 128 
L 347 722 
Q 666 556 975 473 
Q 1284 391 1588 391 
Q 1994 391 2212 530 
Q 2431 669 2431 922 
Q 2431 1156 2273 1281 
Q 2116 1406 1581 1522 
L 1381 1569 
Q 847 1681 609 1914 
Q 372 2147 372 2553 
Q 372 3047 722 3315 
Q 1072 3584 1716 3584 
Q 2034 3584 2315 3537 
Q 2597 3491 2834 3397 
z
" transform="scale(0.015625)"/>
       <path id="DejaVuSans-65" d="M 3597 1894 
L 3597 1613 
L 953 1613 
Q 991 1019 1311 708 
Q 1631 397 2203 397 
Q 2534 397 2845 478 
Q 3156 559 3463 722 
L 3463 178 
Q 3153 47 2828 -22 
Q 2503 -91 2169 -91 
Q 1331 -91 842 396 
Q 353 884 353 1716 
Q 353 2575 817 3079 
Q 1281 3584 2069 3584 
Q 2775 3584 3186 3129 
Q 3597 2675 3597 1894 
z
M 3022 2063 
Q 3016 2534 2758 2815 
Q 2500 3097 2075 3097 
Q 1594 3097 1305 2825 
Q 1016 2553 972 2059 
L 3022 2063 
z
" transform="scale(0.015625)"/>
       <path id="DejaVuSans-20" transform="scale(0.015625)"/>
       <path id="DejaVuSans-50" d="M 1259 4147 
L 1259 2394 
L 2053 2394 
Q 2494 2394 2734 2622 
Q 2975 2850 2975 3272 
Q 2975 3691 2734 3919 
Q 2494 4147 2053 4147 
L 1259 4147 
z
M 628 4666 
L 2053 4666 
Q 2838 4666 3239 4311 
Q 3641 3956 3641 3272 
Q 3641 2581 3239 2228 
Q 2838 1875 2053 1875 
L 1259 1875 
L 1259 0 
L 628 0 
L 628 4666 
z
" transform="scale(0.015625)"/>
       <path id="DejaVuSans-6f" d="M 1959 3097 
Q 1497 3097 1228 2736 
Q 959 2375 959 1747 
Q 959 1119 1226 758 
Q 1494 397 1959 397 
Q 2419 397 2687 759 
Q 2956 1122 2956 1747 
Q 2956 2369 2687 2733 
Q 2419 3097 1959 3097 
z
M 1959 3584 
Q 2709 3584 3137 3096 
Q 3566 2609 3566 1747 
Q 3566 888 3137 398 
Q 2709 -91 1959 -91 
Q 1206 -91 779 398 
Q 353 888 353 1747 
Q 353 2609 779 3096 
Q 1206 3584 1959 3584 
z
" transform="scale(0.015625)"/>
       <path id="DejaVuSans-69" d="M 603 3500 
L 1178 3500 
L 1178 0 
L 603 0 
L 603 3500 
z
M 603 4863 
L 1178 4863 
L 1178 4134 
L 603 4134 
L 603 4863 
z
" transform="scale(0.015625)"/>
       <path id="DejaVuSans-74" d="M 1172 4494 
L 1172 3500 
L 2356 3500 
L 2356 3053 
L 1172 3053 
L 1172 1153 
Q 1172 725 1289 603 
Q 1406 481 1766 481 
L 2356 481 
L 2356 0 
L 1766 0 
Q 1100 0 847 248 
Q 594 497 594 1153 
L 594 3053 
L 172 3053 
L 172 3500 
L 594 3500 
L 594 4494 
L 1172 4494 
z
" transform="scale(0.015625)"/>
       <path id="DejaVuSans-76" d="M 191 3500 
L 800 3500 
L 1894 563 
L 2988 3500 
L 3597 3500 
L 2284 0 
L 1503 0 
L 191 3500 
z
" transform="scale(0.015625)"/>
       <path id="DejaVuSans-52" d="M 2841 2188 
Q 3044 2119 3236 1894 
Q 3428 1669 3622 1275 
L 4263 0 
L 3584 0 
L 2988 1197 
Q 2756 1666 2539 1819 
Q 2322 1972 1947 1972 
L 1259 1972 
L 1259 0 
L 628 0 
L 628 4666 
L 2053 4666 
Q 2853 4666 3247 4331 
Q 3641 3997 3641 3322 
Q 3641 2881 3436 2590 
Q 3231 2300 2841 2188 
z
M 1259 4147 
L 1259 2491 
L 2053 2491 
Q 2509 2491 2742 2702 
Q 2975 2913 2975 3322 
Q 2975 3731 2742 3939 
Q 2509 4147 2053 4147 
L 1259 4147 
z
" transform="scale(0.015625)"/>
      </defs>
      <use xlink:href="#DejaVuSans-46"/>
      <use xlink:href="#DejaVuSans-61" x="48.394531"/>
      <use xlink:href="#DejaVuSans-6c" x="109.673828"/>
      <use xlink:href="#DejaVuSans-73" x="137.457031"/>
      <use xlink:href="#DejaVuSans-65" x="189.556641"/>
      <use xlink:href="#DejaVuSans-20" x="251.080078"/>
      <use xlink:href="#DejaVuSans-50" x="282.867188"/>
      <use xlink:href="#DejaVuSans-6f" x="339.544922"/>
      <use xlink:href="#DejaVuSans-73" x="400.726562"/>
      <use xlink:href="#DejaVuSans-69" x="452.826172"/>
      <use xlink:href="#DejaVuSans-74" x="480.609375"/>
      <use xlink:href="#DejaVuSans-69" x="519.818359"/>
      <use xlink:href="#DejaVuSans-76" x="547.601562"/>
      <use xlink:href="#DejaVuSans-65" x="606.78125"/>
      <use xlink:href="#DejaVuSans-20" x="668.304688"/>
      <use xlink:href="#DejaVuSans-52" x="700.091797"/>
      <use xlink:href="#DejaVuSans-61" x="767.324219"/>
      <use xlink:href="#DejaVuSans-74" x="828.603516"/>
      <use xlink:href="#DejaVuSans-65" x="867.8125"/>
     </g>
    </g>
   </g>
   <g id="matplotlib.axis_2">
    <g id="ytick_1">
     <g id="line2d_7">
      <defs>
       <path id="m2b6b034a4a" d="M 0 0 
L -3.5 0 
" style="stroke: #000000; stroke-width: 0.8"/>
      </defs>
      <g>
       <use xlink:href="#m2b6b034a4a" x="45" y="317.682353" style="stroke: #000000; stroke-width: 0.8"/>
      </g>
     </g>
     <g id="text_8">
      <!-- 0.0 -->
      <g transform="translate(22.096875 321.481572)scale(0.1 -0.1)">
       <use xlink:href="#DejaVuSans-30"/>
       <use xlink:href="#DejaVuSans-2e" x="63.623047"/>
       <use xlink:href="#DejaVuSans-30" x="95.410156"/>
      </g>
     </g>
    </g>
    <g id="ytick_2">
     <g id="line2d_8">
      <g>
       <use xlink:href="#m2b6b034a4a" x="45" y="263.329412" style="stroke: #000000; stroke-width: 0.8"/>
      </g>
     </g>
     <g id="text_9">
      <!-- 0.2 -->
      <g transform="translate(22.096875 267.128631)scale(0.1 -0.1)">
       <use xlink:href="#DejaVuSans-30"/>
       <use xlink:href="#DejaVuSans-2e" x="63.623047"/>
       <use xlink:href="#DejaVuSans-32" x="95.410156"/>
      </g>
     </g>
    </g>
    <g id="ytick_3">
     <g id="line2d_9">
      <g>
       <use xlink:href="#m2b6b034a4a" x="45" y="208.976471" style="stroke: #000000; stroke-width: 0.8"/>
      </g>
     </g>
     <g id="text_10">
      <!-- 0.4 -->
      <g transform="translate(22.096875 212.775689)scale(0.1 -0.1)">
       <use xlink:href="#DejaVuSans-30"/>
       <use xlink:href="#DejaVuSans-2e" x="63.623047"/>
       <use xlink:href="#DejaVuSans-34" x="95.410156"/>
      </g>
     </g>
    </g>
    <g id="ytick_4">
     <g id="line2d_10">
      <g>
       <use xlink:href="#m2b6b034a4a" x="45" y="154.623529" style="stroke: #000000; stroke-width: 0.8"/>
      </g>
     </g>
     <g id="text_11">
      <!-- 0.6 -->
      <g transform="translate(22.096875 158.422748)scale(0.1 -0.1)">
       <use xlink:href="#DejaVuSans-30"/>
       <use xlink:href="#DejaVuSans-2e" x="63.623047"/>
       <use xlink:href="#DejaVuSans-36" x="95.410156"/>
      </g>
     </g>
    </g>
    <g id="ytick_5">
     <g id="line2d_11">
      <g>
       <use xlink:href="#m2b6b034a4a" x="45" y="100.270588" style="stroke: #000000; stroke-width: 0.8"/>
      </g>
     </g>
     <g id="text_12">
      <!-- 0.8 -->
      <g transform="translate(22.096875 104.069807)scale(0.1 -0.1)">
       <use xlink:href="#DejaVuSans-30"/>
       <use xlink:href="#DejaVuSans-2e" x="63.623047"/>
       <use xlink:href="#DejaVuSans-38" x="95.410156"/>
      </g>
     </g>
    </g>
    <g id="ytick_6">
     <g id="line2d_12">
      <g>
       <use xlink:href="#m2b6b034a4a" x="45" y="45.917647" style="stroke: #000000; stroke-width: 0.8"/>
      </g>
     </g>
     <g id="text_13">
      <!-- 1.0 -->
      <g transform="translate(22.096875 49.716866)scale(0.1 -0.1)">
       <use xlink:href="#DejaVuSans-31"/>
       <use xlink:href="#DejaVuSans-2e" x="63.623047"/>
       <use xlink:href="#DejaVuSans-30" x="95.410156"/>
      </g>
     </g>
    </g>
    <g id="text_14">
     <!-- True Positive Rate -->
     <g transform="translate(16.017187 226.329687)rotate(-90)scale(0.1 -0.1)">
      <defs>
       <path id="DejaVuSans-54" d="M -19 4666 
L 3928 4666 
L 3928 4134 
L 2272 4134 
L 2272 0 
L 1638 0 
L 1638 4134 
L -19 4134 
L -19 4666 
z
" transform="scale(0.015625)"/>
       <path id="DejaVuSans-72" d="M 2631 2963 
Q 2534 3019 2420 3045 
Q 2306 3072 2169 3072 
Q 1681 3072 1420 2755 
Q 1159 2438 1159 1844 
L 1159 0 
L 581 0 
L 581 3500 
L 1159 3500 
L 1159 2956 
Q 1341 3275 1631 3429 
Q 1922 3584 2338 3584 
Q 2397 3584 2469 3576 
Q 2541 3569 2628 3553 
L 2631 2963 
z
" transform="scale(0.015625)"/>
       <path id="DejaVuSans-75" d="M 544 1381 
L 544 3500 
L 1119 3500 
L 1119 1403 
Q 1119 906 1312 657 
Q 1506 409 1894 409 
Q 2359 409 2629 706 
Q 2900 1003 2900 1516 
L 2900 3500 
L 3475 3500 
L 3475 0 
L 2900 0 
L 2900 538 
Q 2691 219 2414 64 
Q 2138 -91 1772 -91 
Q 1169 -91 856 284 
Q 544 659 544 1381 
z
M 1991 3584 
L 1991 3584 
z
" transform="scale(0.015625)"/>
      </defs>
      <use xlink:href="#DejaVuSans-54"/>
      <use xlink:href="#DejaVuSans-72" x="46.333984"/>
      <use xlink:href="#DejaVuSans-75" x="87.447266"/>
      <use xlink:href="#DejaVuSans-65" x="150.826172"/>
      <use xlink:href="#DejaVuSans-20" x="212.349609"/>
      <use xlink:href="#DejaVuSans-50" x="244.136719"/>
      <use xlink:href="#DejaVuSans-6f" x="300.814453"/>
      <use xlink:href="#DejaVuSans-73" x="361.996094"/>
      <use xlink:href="#DejaVuSans-69" x="414.095703"/>
      <use xlink:href="#DejaVuSans-74" x="441.878906"/>
      <use xlink:href="#DejaVuSans-69" x="481.087891"/>
      <use xlink:href="#DejaVuSans-76" x="508.871094"/>
      <use xlink:href="#DejaVuSans-65" x="568.050781"/>
      <use xlink:href="#DejaVuSans-20" x="629.574219"/>
      <use xlink:href="#DejaVuSans-52" x="661.361328"/>
      <use xlink:href="#DejaVuSans-61" x="728.59375"/>
      <use xlink:href="#DejaVuSans-74" x="789.873047"/>
      <use xlink:href="#DejaVuSans-65" x="829.082031"/>
     </g>
    </g>
   </g>
   <g id="line2d_13">
    <path d="M 48.617647 317.682353 
L 48.617647 292.976471 
L 48.617647 218.858824 
L 62.205882 218.858824 
L 62.205882 144.741176 
L 143.735294 144.741176 
L 143.735294 95.329412 
L 198.088235 95.329412 
L 198.088235 45.917647 
L 320.382353 45.917647 
" clip-path="url(#paf542313a8)" style="fill: none; stroke: #0000ff; stroke-opacity: 0.15; stroke-width: 1.5; stroke-linecap: square"/>
   </g>
   <g id="line2d_14">
    <path d="M 48.617647 317.682353 
L 48.617647 302.584314 
L 48.617647 287.486275 
L 90.427602 287.486275 
L 90.427602 196.898039 
L 111.332579 196.898039 
L 111.332579 181.8 
L 132.237557 181.8 
L 132.237557 121.407843 
L 174.047511 121.407843 
L 174.047511 106.309804 
L 194.952489 106.309804 
L 194.952489 61.015686 
L 236.762443 61.015686 
L 236.762443 45.917647 
L 320.382353 45.917647 
" clip-path="url(#paf542313a8)" style="fill: none; stroke: #0000ff; stroke-opacity: 0.15; stroke-width: 1.5; stroke-linecap: square"/>
   </g>
   <g id="line2d_15">
    <path d="M 48.617647 317.682353 
L 48.617647 303.378947 
L 48.617647 74.524458 
L 139.205882 74.524458 
L 139.205882 60.221053 
L 161.852941 60.221053 
L 161.852941 45.917647 
L 320.382353 45.917647 
" clip-path="url(#paf542313a8)" style="fill: none; stroke: #0000ff; stroke-opacity: 0.15; stroke-width: 1.5; stroke-linecap: square"/>
   </g>
   <g id="line2d_16">
    <path d="M 48.617647 317.682353 
L 48.617647 299.564706 
L 48.617647 281.447059 
L 82.588235 281.447059 
L 82.588235 227.094118 
L 99.573529 227.094118 
L 99.573529 208.976471 
L 116.558824 208.976471 
L 116.558824 154.623529 
L 150.529412 154.623529 
L 150.529412 136.505882 
L 167.514706 136.505882 
L 167.514706 100.270588 
L 184.5 100.270588 
L 184.5 82.152941 
L 235.455882 82.152941 
L 235.455882 45.917647 
L 320.382353 45.917647 
" clip-path="url(#paf542313a8)" style="fill: none; stroke: #0000ff; stroke-opacity: 0.15; stroke-width: 1.5; stroke-linecap: square"/>
   </g>
   <g id="line2d_17">
    <path d="M 48.617647 317.682353 
L 63.715686 317.682353 
L 109.009804 317.682353 
L 109.009804 295.035294 
L 124.107843 295.035294 
L 124.107843 227.094118 
L 139.205882 227.094118 
L 139.205882 204.447059 
L 154.303922 204.447059 
L 154.303922 136.505882 
L 184.5 136.505882 
L 184.5 91.211765 
L 214.696078 91.211765 
L 214.696078 68.564706 
L 244.892157 68.564706 
L 244.892157 45.917647 
L 320.382353 45.917647 
" clip-path="url(#paf542313a8)" style="fill: none; stroke: #0000ff; stroke-opacity: 0.15; stroke-width: 1.5; stroke-linecap: square"/>
   </g>
   <g id="line2d_18">
    <path d="M 48.617647 317.682353 
L 48.617647 298.270588 
L 65.602941 298.270588 
L 65.602941 278.858824 
L 82.588235 278.858824 
L 82.588235 259.447059 
L 99.573529 259.447059 
L 99.573529 181.8 
L 167.514706 181.8 
L 167.514706 142.976471 
L 184.5 142.976471 
L 184.5 123.564706 
L 201.485294 123.564706 
L 201.485294 65.329412 
L 303.397059 65.329412 
L 303.397059 45.917647 
L 320.382353 45.917647 
" clip-path="url(#paf542313a8)" style="fill: none; stroke: #0000ff; stroke-opacity: 0.15; stroke-width: 1.5; stroke-linecap: square"/>
   </g>
   <g id="line2d_19">
    <path d="M 48.617647 317.682353 
L 65.602941 317.682353 
L 65.602941 298.270588 
L 82.588235 298.270588 
L 82.588235 259.447059 
L 99.573529 259.447059 
L 99.573529 123.564706 
L 116.558824 123.564706 
L 116.558824 104.152941 
L 235.455882 104.152941 
L 235.455882 84.741176 
L 252.441176 84.741176 
L 252.441176 65.329412 
L 269.426471 65.329412 
L 269.426471 45.917647 
L 320.382353 45.917647 
" clip-path="url(#paf542313a8)" style="fill: none; stroke: #0000ff; stroke-opacity: 0.15; stroke-width: 1.5; stroke-linecap: square"/>
   </g>
   <g id="line2d_20">
    <path d="M 48.617647 317.682353 
L 62.205882 317.682353 
L 62.205882 290.505882 
L 89.382353 290.505882 
L 89.382353 181.8 
L 102.970588 181.8 
L 102.970588 154.623529 
L 130.147059 154.623529 
L 130.147059 127.447059 
L 143.735294 127.447059 
L 143.735294 100.270588 
L 170.911765 100.270588 
L 170.911765 73.094118 
L 198.088235 73.094118 
L 198.088235 45.917647 
L 320.382353 45.917647 
" clip-path="url(#paf542313a8)" style="fill: none; stroke: #0000ff; stroke-opacity: 0.15; stroke-width: 1.5; stroke-linecap: square"/>
   </g>
   <g id="line2d_21">
    <path d="M 48.617647 317.682353 
L 66.735294 317.682353 
L 66.735294 299.564706 
L 84.852941 299.564706 
L 84.852941 245.211765 
L 102.970588 245.211765 
L 102.970588 208.976471 
L 121.088235 208.976471 
L 121.088235 190.858824 
L 211.676471 190.858824 
L 211.676471 154.623529 
L 266.029412 154.623529 
L 266.029412 82.152941 
L 302.264706 82.152941 
L 302.264706 45.917647 
L 320.382353 45.917647 
" clip-path="url(#paf542313a8)" style="fill: none; stroke: #0000ff; stroke-opacity: 0.15; stroke-width: 1.5; stroke-linecap: square"/>
   </g>
   <g id="line2d_22">
    <path d="M 48.617647 317.682353 
L 48.617647 302.584314 
L 48.617647 181.8 
L 71.264706 181.8 
L 71.264706 121.407843 
L 139.205882 121.407843 
L 139.205882 106.309804 
L 161.852941 106.309804 
L 161.852941 61.015686 
L 229.794118 61.015686 
L 229.794118 45.917647 
L 320.382353 45.917647 
" clip-path="url(#paf542313a8)" style="fill: none; stroke: #0000ff; stroke-opacity: 0.15; stroke-width: 1.5; stroke-linecap: square"/>
   </g>
   <g id="line2d_23">
    <path d="M 48.617647 317.682353 
L 51.335294 261.311662 
L 54.052941 261.311662 
L 56.770588 261.311662 
L 59.488235 261.311662 
L 62.205882 251.18225 
L 64.923529 251.18225 
L 67.641176 245.488132 
L 70.358824 245.488132 
L 73.076471 239.448916 
L 75.794118 239.448916 
L 78.511765 239.448916 
L 81.229412 239.448916 
L 83.947059 228.190093 
L 86.664706 222.754799 
L 89.382353 211.884211 
L 92.1 202.825387 
L 94.817647 202.825387 
L 97.535294 202.825387 
L 100.252941 179.660681 
L 102.970588 173.319505 
L 105.688235 173.319505 
L 108.405882 173.319505 
L 111.123529 171.054799 
L 113.841176 169.544995 
L 116.558824 162.168524 
L 119.276471 162.168524 
L 121.994118 160.35676 
L 124.711765 153.562642 
L 127.429412 153.562642 
L 130.147059 150.844995 
L 132.864706 144.805779 
L 135.582353 144.805779 
L 138.3 144.805779 
L 141.017647 139.600929 
L 143.735294 131.942105 
L 146.452941 131.942105 
L 149.170588 131.942105 
L 151.888235 130.130341 
L 154.605882 123.336223 
L 157.323529 123.336223 
L 160.041176 123.336223 
L 162.758824 117.376471 
L 165.476471 117.376471 
L 168.194118 109.870588 
L 170.911765 107.152941 
L 173.629412 107.152941 
L 176.347059 105.643137 
L 179.064706 105.643137 
L 181.782353 105.643137 
L 184.5 97.360784 
L 187.217647 97.360784 
L 189.935294 97.360784 
L 192.652941 97.360784 
L 195.370588 92.831373 
L 198.088235 85.172549 
L 200.805882 85.172549 
L 203.523529 79.34902 
L 206.241176 79.34902 
L 208.958824 79.34902 
L 211.676471 75.72549 
L 214.394118 75.72549 
L 217.111765 73.460784 
L 219.829412 73.460784 
L 222.547059 73.460784 
L 225.264706 73.460784 
L 227.982353 73.460784 
L 230.7 71.95098 
L 233.417647 71.95098 
L 236.135294 66.386275 
L 238.852941 64.876471 
L 241.570588 64.876471 
L 244.288235 64.876471 
L 247.005882 62.611765 
L 249.723529 62.611765 
L 252.441176 60.670588 
L 255.158824 60.670588 
L 257.876471 60.670588 
L 260.594118 60.670588 
L 263.311765 60.670588 
L 266.029412 53.423529 
L 268.747059 53.423529 
L 271.464706 51.482353 
L 274.182353 51.482353 
L 276.9 51.482353 
L 279.617647 51.482353 
L 282.335294 51.482353 
L 285.052941 51.482353 
L 287.770588 51.482353 
L 290.488235 51.482353 
L 293.205882 51.482353 
L 295.923529 51.482353 
L 298.641176 51.482353 
L 301.358824 51.482353 
L 304.076471 45.917647 
L 306.794118 45.917647 
L 309.511765 45.917647 
L 312.229412 45.917647 
L 314.947059 45.917647 
L 317.664706 45.917647 
L 320.382353 45.917647 
" clip-path="url(#paf542313a8)" style="fill: none; stroke: #0000ff; stroke-width: 1.5; stroke-linecap: square"/>
   </g>
   <g id="line2d_24">
    <path d="M 48.617647 317.682353 
L 320.382353 45.917647 
" clip-path="url(#paf542313a8)" style="fill: none; stroke-dasharray: 5.55,2.4; stroke-dashoffset: 0; stroke: #ff0000; stroke-width: 1.5"/>
   </g>
   <g id="patch_3">
    <path d="M 45 320.4 
L 45 43.2 
" style="fill: none; stroke: #000000; stroke-width: 0.8; stroke-linejoin: miter; stroke-linecap: square"/>
   </g>
   <g id="patch_4">
    <path d="M 324 320.4 
L 324 43.2 
" style="fill: none; stroke: #000000; stroke-width: 0.8; stroke-linejoin: miter; stroke-linecap: square"/>
   </g>
   <g id="patch_5">
    <path d="M 45 320.4 
L 324 320.4 
" style="fill: none; stroke: #000000; stroke-width: 0.8; stroke-linejoin: miter; stroke-linecap: square"/>
   </g>
   <g id="patch_6">
    <path d="M 45 43.2 
L 324 43.2 
" style="fill: none; stroke: #000000; stroke-width: 0.8; stroke-linejoin: miter; stroke-linecap: square"/>
   </g>
  </g>
 </g>
 <defs>
  <clipPath id="paf542313a8">
   <rect x="45" y="43.2" width="279" height="277.2"/>
  </clipPath>
 </defs>
</svg>
