<?xml version="1.0" encoding="utf-8" standalone="no"?>
<!DOCTYPE svg PUBLIC "-//W3C//DTD SVG 1.1//EN"
  "http://www.w3.org/Graphics/SVG/1.1/DTD/svg11.dtd">
<svg height="345.6pt" version="1.1" viewBox="0 0 460.8 345.6" width="460.8pt" xmlns="http://www.w3.org/2000/svg" xmlns:xlink="http://www.w3.org/1999/xlink">
 <metadata>
  <rdf:RDF xmlns:cc="http://creativecommons.org/ns#" xmlns:dc="http://purl.org/dc/elements/1.1/" xmlns:rdf="http://www.w3.org/1999/02/22-rdf-syntax-ns#">
   <cc:Work>
    <dc:type rdf:resource="http://purl.org/dc/dcmitype/StillImage"/>
    <dc:date>2021-12-09T18:07:25.661784</dc:date>
    <dc:format>image/svg+xml</dc:format>
    <dc:creator>
     <cc:Agent>
      <dc:title>Matplotlib v3.4.2, https://matplotlib.org/</dc:title>
     </cc:Agent>
    </dc:creator>
   </cc:Work>
  </rdf:RDF>
 </metadata>
 <defs>
  <style type="text/css">*{stroke-linecap:butt;stroke-linejoin:round;}</style>
 </defs>
 <g id="figure_1">
  <g id="patch_1">
   <path d="M 0 345.6 
L 460.8 345.6 
L 460.8 0 
L 0 0 
z
" style="fill:#ffffff;"/>
  </g>
  <g id="axes_1">
   <g id="patch_2">
    <path d="M 57.6 307.584 
L 414.72 307.584 
L 414.72 41.472 
L 57.6 41.472 
z
" style="fill:#ffffff;"/>
   </g>
   <g id="matplotlib.axis_1">
    <g id="xtick_1">
     <g id="line2d_1">
      <defs>
       <path d="M 0 0 
L 0 3.5 
" id="m4a29825d50" style="stroke:#000000;stroke-width:0.8;"/>
      </defs>
      <g>
       <use style="stroke:#000000;stroke-width:0.8;" x="73.832727" xlink:href="#m4a29825d50" y="307.584"/>
      </g>
     </g>
     <g id="text_1">
      <!-- 0.0 -->
      <g transform="translate(65.881165 322.182437)scale(0.1 -0.1)">
       <defs>
        <path d="M 2034 4250 
Q 1547 4250 1301 3770 
Q 1056 3291 1056 2328 
Q 1056 1369 1301 889 
Q 1547 409 2034 409 
Q 2525 409 2770 889 
Q 3016 1369 3016 2328 
Q 3016 3291 2770 3770 
Q 2525 4250 2034 4250 
z
M 2034 4750 
Q 2819 4750 3233 4129 
Q 3647 3509 3647 2328 
Q 3647 1150 3233 529 
Q 2819 -91 2034 -91 
Q 1250 -91 836 529 
Q 422 1150 422 2328 
Q 422 3509 836 4129 
Q 1250 4750 2034 4750 
z
" id="DejaVuSans-30" transform="scale(0.015625)"/>
        <path d="M 684 794 
L 1344 794 
L 1344 0 
L 684 0 
L 684 794 
z
" id="DejaVuSans-2e" transform="scale(0.015625)"/>
       </defs>
       <use xlink:href="#DejaVuSans-30"/>
       <use x="63.623047" xlink:href="#DejaVuSans-2e"/>
       <use x="95.410156" xlink:href="#DejaVuSans-30"/>
      </g>
     </g>
    </g>
    <g id="xtick_2">
     <g id="line2d_2">
      <g>
       <use style="stroke:#000000;stroke-width:0.8;" x="138.763636" xlink:href="#m4a29825d50" y="307.584"/>
      </g>
     </g>
     <g id="text_2">
      <!-- 0.2 -->
      <g transform="translate(130.812074 322.182437)scale(0.1 -0.1)">
       <defs>
        <path d="M 1228 531 
L 3431 531 
L 3431 0 
L 469 0 
L 469 531 
Q 828 903 1448 1529 
Q 2069 2156 2228 2338 
Q 2531 2678 2651 2914 
Q 2772 3150 2772 3378 
Q 2772 3750 2511 3984 
Q 2250 4219 1831 4219 
Q 1534 4219 1204 4116 
Q 875 4013 500 3803 
L 500 4441 
Q 881 4594 1212 4672 
Q 1544 4750 1819 4750 
Q 2544 4750 2975 4387 
Q 3406 4025 3406 3419 
Q 3406 3131 3298 2873 
Q 3191 2616 2906 2266 
Q 2828 2175 2409 1742 
Q 1991 1309 1228 531 
z
" id="DejaVuSans-32" transform="scale(0.015625)"/>
       </defs>
       <use xlink:href="#DejaVuSans-30"/>
       <use x="63.623047" xlink:href="#DejaVuSans-2e"/>
       <use x="95.410156" xlink:href="#DejaVuSans-32"/>
      </g>
     </g>
    </g>
    <g id="xtick_3">
     <g id="line2d_3">
      <g>
       <use style="stroke:#000000;stroke-width:0.8;" x="203.694545" xlink:href="#m4a29825d50" y="307.584"/>
      </g>
     </g>
     <g id="text_3">
      <!-- 0.4 -->
      <g transform="translate(195.742983 322.182437)scale(0.1 -0.1)">
       <defs>
        <path d="M 2419 4116 
L 825 1625 
L 2419 1625 
L 2419 4116 
z
M 2253 4666 
L 3047 4666 
L 3047 1625 
L 3713 1625 
L 3713 1100 
L 3047 1100 
L 3047 0 
L 2419 0 
L 2419 1100 
L 313 1100 
L 313 1709 
L 2253 4666 
z
" id="DejaVuSans-34" transform="scale(0.015625)"/>
       </defs>
       <use xlink:href="#DejaVuSans-30"/>
       <use x="63.623047" xlink:href="#DejaVuSans-2e"/>
       <use x="95.410156" xlink:href="#DejaVuSans-34"/>
      </g>
     </g>
    </g>
    <g id="xtick_4">
     <g id="line2d_4">
      <g>
       <use style="stroke:#000000;stroke-width:0.8;" x="268.625455" xlink:href="#m4a29825d50" y="307.584"/>
      </g>
     </g>
     <g id="text_4">
      <!-- 0.6 -->
      <g transform="translate(260.673892 322.182437)scale(0.1 -0.1)">
       <defs>
        <path d="M 2113 2584 
Q 1688 2584 1439 2293 
Q 1191 2003 1191 1497 
Q 1191 994 1439 701 
Q 1688 409 2113 409 
Q 2538 409 2786 701 
Q 3034 994 3034 1497 
Q 3034 2003 2786 2293 
Q 2538 2584 2113 2584 
z
M 3366 4563 
L 3366 3988 
Q 3128 4100 2886 4159 
Q 2644 4219 2406 4219 
Q 1781 4219 1451 3797 
Q 1122 3375 1075 2522 
Q 1259 2794 1537 2939 
Q 1816 3084 2150 3084 
Q 2853 3084 3261 2657 
Q 3669 2231 3669 1497 
Q 3669 778 3244 343 
Q 2819 -91 2113 -91 
Q 1303 -91 875 529 
Q 447 1150 447 2328 
Q 447 3434 972 4092 
Q 1497 4750 2381 4750 
Q 2619 4750 2861 4703 
Q 3103 4656 3366 4563 
z
" id="DejaVuSans-36" transform="scale(0.015625)"/>
       </defs>
       <use xlink:href="#DejaVuSans-30"/>
       <use x="63.623047" xlink:href="#DejaVuSans-2e"/>
       <use x="95.410156" xlink:href="#DejaVuSans-36"/>
      </g>
     </g>
    </g>
    <g id="xtick_5">
     <g id="line2d_5">
      <g>
       <use style="stroke:#000000;stroke-width:0.8;" x="333.556364" xlink:href="#m4a29825d50" y="307.584"/>
      </g>
     </g>
     <g id="text_5">
      <!-- 0.8 -->
      <g transform="translate(325.604801 322.182437)scale(0.1 -0.1)">
       <defs>
        <path d="M 2034 2216 
Q 1584 2216 1326 1975 
Q 1069 1734 1069 1313 
Q 1069 891 1326 650 
Q 1584 409 2034 409 
Q 2484 409 2743 651 
Q 3003 894 3003 1313 
Q 3003 1734 2745 1975 
Q 2488 2216 2034 2216 
z
M 1403 2484 
Q 997 2584 770 2862 
Q 544 3141 544 3541 
Q 544 4100 942 4425 
Q 1341 4750 2034 4750 
Q 2731 4750 3128 4425 
Q 3525 4100 3525 3541 
Q 3525 3141 3298 2862 
Q 3072 2584 2669 2484 
Q 3125 2378 3379 2068 
Q 3634 1759 3634 1313 
Q 3634 634 3220 271 
Q 2806 -91 2034 -91 
Q 1263 -91 848 271 
Q 434 634 434 1313 
Q 434 1759 690 2068 
Q 947 2378 1403 2484 
z
M 1172 3481 
Q 1172 3119 1398 2916 
Q 1625 2713 2034 2713 
Q 2441 2713 2670 2916 
Q 2900 3119 2900 3481 
Q 2900 3844 2670 4047 
Q 2441 4250 2034 4250 
Q 1625 4250 1398 4047 
Q 1172 3844 1172 3481 
z
" id="DejaVuSans-38" transform="scale(0.015625)"/>
       </defs>
       <use xlink:href="#DejaVuSans-30"/>
       <use x="63.623047" xlink:href="#DejaVuSans-2e"/>
       <use x="95.410156" xlink:href="#DejaVuSans-38"/>
      </g>
     </g>
    </g>
    <g id="xtick_6">
     <g id="line2d_6">
      <g>
       <use style="stroke:#000000;stroke-width:0.8;" x="398.487273" xlink:href="#m4a29825d50" y="307.584"/>
      </g>
     </g>
     <g id="text_6">
      <!-- 1.0 -->
      <g transform="translate(390.53571 322.182437)scale(0.1 -0.1)">
       <defs>
        <path d="M 794 531 
L 1825 531 
L 1825 4091 
L 703 3866 
L 703 4441 
L 1819 4666 
L 2450 4666 
L 2450 531 
L 3481 531 
L 3481 0 
L 794 0 
L 794 531 
z
" id="DejaVuSans-31" transform="scale(0.015625)"/>
       </defs>
       <use xlink:href="#DejaVuSans-31"/>
       <use x="63.623047" xlink:href="#DejaVuSans-2e"/>
       <use x="95.410156" xlink:href="#DejaVuSans-30"/>
      </g>
     </g>
    </g>
    <g id="text_7">
     <!-- False Positive Rate -->
     <g transform="translate(189.693594 335.860562)scale(0.1 -0.1)">
      <defs>
       <path d="M 628 4666 
L 3309 4666 
L 3309 4134 
L 1259 4134 
L 1259 2759 
L 3109 2759 
L 3109 2228 
L 1259 2228 
L 1259 0 
L 628 0 
L 628 4666 
z
" id="DejaVuSans-46" transform="scale(0.015625)"/>
       <path d="M 2194 1759 
Q 1497 1759 1228 1600 
Q 959 1441 959 1056 
Q 959 750 1161 570 
Q 1363 391 1709 391 
Q 2188 391 2477 730 
Q 2766 1069 2766 1631 
L 2766 1759 
L 2194 1759 
z
M 3341 1997 
L 3341 0 
L 2766 0 
L 2766 531 
Q 2569 213 2275 61 
Q 1981 -91 1556 -91 
Q 1019 -91 701 211 
Q 384 513 384 1019 
Q 384 1609 779 1909 
Q 1175 2209 1959 2209 
L 2766 2209 
L 2766 2266 
Q 2766 2663 2505 2880 
Q 2244 3097 1772 3097 
Q 1472 3097 1187 3025 
Q 903 2953 641 2809 
L 641 3341 
Q 956 3463 1253 3523 
Q 1550 3584 1831 3584 
Q 2591 3584 2966 3190 
Q 3341 2797 3341 1997 
z
" id="DejaVuSans-61" transform="scale(0.015625)"/>
       <path d="M 603 4863 
L 1178 4863 
L 1178 0 
L 603 0 
L 603 4863 
z
" id="DejaVuSans-6c" transform="scale(0.015625)"/>
       <path d="M 2834 3397 
L 2834 2853 
Q 2591 2978 2328 3040 
Q 2066 3103 1784 3103 
Q 1356 3103 1142 2972 
Q 928 2841 928 2578 
Q 928 2378 1081 2264 
Q 1234 2150 1697 2047 
L 1894 2003 
Q 2506 1872 2764 1633 
Q 3022 1394 3022 966 
Q 3022 478 2636 193 
Q 2250 -91 1575 -91 
Q 1294 -91 989 -36 
Q 684 19 347 128 
L 347 722 
Q 666 556 975 473 
Q 1284 391 1588 391 
Q 1994 391 2212 530 
Q 2431 669 2431 922 
Q 2431 1156 2273 1281 
Q 2116 1406 1581 1522 
L 1381 1569 
Q 847 1681 609 1914 
Q 372 2147 372 2553 
Q 372 3047 722 3315 
Q 1072 3584 1716 3584 
Q 2034 3584 2315 3537 
Q 2597 3491 2834 3397 
z
" id="DejaVuSans-73" transform="scale(0.015625)"/>
       <path d="M 3597 1894 
L 3597 1613 
L 953 1613 
Q 991 1019 1311 708 
Q 1631 397 2203 397 
Q 2534 397 2845 478 
Q 3156 559 3463 722 
L 3463 178 
Q 3153 47 2828 -22 
Q 2503 -91 2169 -91 
Q 1331 -91 842 396 
Q 353 884 353 1716 
Q 353 2575 817 3079 
Q 1281 3584 2069 3584 
Q 2775 3584 3186 3129 
Q 3597 2675 3597 1894 
z
M 3022 2063 
Q 3016 2534 2758 2815 
Q 2500 3097 2075 3097 
Q 1594 3097 1305 2825 
Q 1016 2553 972 2059 
L 3022 2063 
z
" id="DejaVuSans-65" transform="scale(0.015625)"/>
       <path id="DejaVuSans-20" transform="scale(0.015625)"/>
       <path d="M 1259 4147 
L 1259 2394 
L 2053 2394 
Q 2494 2394 2734 2622 
Q 2975 2850 2975 3272 
Q 2975 3691 2734 3919 
Q 2494 4147 2053 4147 
L 1259 4147 
z
M 628 4666 
L 2053 4666 
Q 2838 4666 3239 4311 
Q 3641 3956 3641 3272 
Q 3641 2581 3239 2228 
Q 2838 1875 2053 1875 
L 1259 1875 
L 1259 0 
L 628 0 
L 628 4666 
z
" id="DejaVuSans-50" transform="scale(0.015625)"/>
       <path d="M 1959 3097 
Q 1497 3097 1228 2736 
Q 959 2375 959 1747 
Q 959 1119 1226 758 
Q 1494 397 1959 397 
Q 2419 397 2687 759 
Q 2956 1122 2956 1747 
Q 2956 2369 2687 2733 
Q 2419 3097 1959 3097 
z
M 1959 3584 
Q 2709 3584 3137 3096 
Q 3566 2609 3566 1747 
Q 3566 888 3137 398 
Q 2709 -91 1959 -91 
Q 1206 -91 779 398 
Q 353 888 353 1747 
Q 353 2609 779 3096 
Q 1206 3584 1959 3584 
z
" id="DejaVuSans-6f" transform="scale(0.015625)"/>
       <path d="M 603 3500 
L 1178 3500 
L 1178 0 
L 603 0 
L 603 3500 
z
M 603 4863 
L 1178 4863 
L 1178 4134 
L 603 4134 
L 603 4863 
z
" id="DejaVuSans-69" transform="scale(0.015625)"/>
       <path d="M 1172 4494 
L 1172 3500 
L 2356 3500 
L 2356 3053 
L 1172 3053 
L 1172 1153 
Q 1172 725 1289 603 
Q 1406 481 1766 481 
L 2356 481 
L 2356 0 
L 1766 0 
Q 1100 0 847 248 
Q 594 497 594 1153 
L 594 3053 
L 172 3053 
L 172 3500 
L 594 3500 
L 594 4494 
L 1172 4494 
z
" id="DejaVuSans-74" transform="scale(0.015625)"/>
       <path d="M 191 3500 
L 800 3500 
L 1894 563 
L 2988 3500 
L 3597 3500 
L 2284 0 
L 1503 0 
L 191 3500 
z
" id="DejaVuSans-76" transform="scale(0.015625)"/>
       <path d="M 2841 2188 
Q 3044 2119 3236 1894 
Q 3428 1669 3622 1275 
L 4263 0 
L 3584 0 
L 2988 1197 
Q 2756 1666 2539 1819 
Q 2322 1972 1947 1972 
L 1259 1972 
L 1259 0 
L 628 0 
L 628 4666 
L 2053 4666 
Q 2853 4666 3247 4331 
Q 3641 3997 3641 3322 
Q 3641 2881 3436 2590 
Q 3231 2300 2841 2188 
z
M 1259 4147 
L 1259 2491 
L 2053 2491 
Q 2509 2491 2742 2702 
Q 2975 2913 2975 3322 
Q 2975 3731 2742 3939 
Q 2509 4147 2053 4147 
L 1259 4147 
z
" id="DejaVuSans-52" transform="scale(0.015625)"/>
      </defs>
      <use xlink:href="#DejaVuSans-46"/>
      <use x="48.394531" xlink:href="#DejaVuSans-61"/>
      <use x="109.673828" xlink:href="#DejaVuSans-6c"/>
      <use x="137.457031" xlink:href="#DejaVuSans-73"/>
      <use x="189.556641" xlink:href="#DejaVuSans-65"/>
      <use x="251.080078" xlink:href="#DejaVuSans-20"/>
      <use x="282.867188" xlink:href="#DejaVuSans-50"/>
      <use x="339.544922" xlink:href="#DejaVuSans-6f"/>
      <use x="400.726562" xlink:href="#DejaVuSans-73"/>
      <use x="452.826172" xlink:href="#DejaVuSans-69"/>
      <use x="480.609375" xlink:href="#DejaVuSans-74"/>
      <use x="519.818359" xlink:href="#DejaVuSans-69"/>
      <use x="547.601562" xlink:href="#DejaVuSans-76"/>
      <use x="606.78125" xlink:href="#DejaVuSans-65"/>
      <use x="668.304688" xlink:href="#DejaVuSans-20"/>
      <use x="700.091797" xlink:href="#DejaVuSans-52"/>
      <use x="767.324219" xlink:href="#DejaVuSans-61"/>
      <use x="828.603516" xlink:href="#DejaVuSans-74"/>
      <use x="867.8125" xlink:href="#DejaVuSans-65"/>
     </g>
    </g>
   </g>
   <g id="matplotlib.axis_2">
    <g id="ytick_1">
     <g id="line2d_7">
      <defs>
       <path d="M 0 0 
L -3.5 0 
" id="m93a388402b" style="stroke:#000000;stroke-width:0.8;"/>
      </defs>
      <g>
       <use style="stroke:#000000;stroke-width:0.8;" x="57.6" xlink:href="#m93a388402b" y="295.488"/>
      </g>
     </g>
     <g id="text_8">
      <!-- 0.0 -->
      <g transform="translate(34.696875 299.287219)scale(0.1 -0.1)">
       <use xlink:href="#DejaVuSans-30"/>
       <use x="63.623047" xlink:href="#DejaVuSans-2e"/>
       <use x="95.410156" xlink:href="#DejaVuSans-30"/>
      </g>
     </g>
    </g>
    <g id="ytick_2">
     <g id="line2d_8">
      <g>
       <use style="stroke:#000000;stroke-width:0.8;" x="57.6" xlink:href="#m93a388402b" y="247.104"/>
      </g>
     </g>
     <g id="text_9">
      <!-- 0.2 -->
      <g transform="translate(34.696875 250.903219)scale(0.1 -0.1)">
       <use xlink:href="#DejaVuSans-30"/>
       <use x="63.623047" xlink:href="#DejaVuSans-2e"/>
       <use x="95.410156" xlink:href="#DejaVuSans-32"/>
      </g>
     </g>
    </g>
    <g id="ytick_3">
     <g id="line2d_9">
      <g>
       <use style="stroke:#000000;stroke-width:0.8;" x="57.6" xlink:href="#m93a388402b" y="198.72"/>
      </g>
     </g>
     <g id="text_10">
      <!-- 0.4 -->
      <g transform="translate(34.696875 202.519219)scale(0.1 -0.1)">
       <use xlink:href="#DejaVuSans-30"/>
       <use x="63.623047" xlink:href="#DejaVuSans-2e"/>
       <use x="95.410156" xlink:href="#DejaVuSans-34"/>
      </g>
     </g>
    </g>
    <g id="ytick_4">
     <g id="line2d_10">
      <g>
       <use style="stroke:#000000;stroke-width:0.8;" x="57.6" xlink:href="#m93a388402b" y="150.336"/>
      </g>
     </g>
     <g id="text_11">
      <!-- 0.6 -->
      <g transform="translate(34.696875 154.135219)scale(0.1 -0.1)">
       <use xlink:href="#DejaVuSans-30"/>
       <use x="63.623047" xlink:href="#DejaVuSans-2e"/>
       <use x="95.410156" xlink:href="#DejaVuSans-36"/>
      </g>
     </g>
    </g>
    <g id="ytick_5">
     <g id="line2d_11">
      <g>
       <use style="stroke:#000000;stroke-width:0.8;" x="57.6" xlink:href="#m93a388402b" y="101.952"/>
      </g>
     </g>
     <g id="text_12">
      <!-- 0.8 -->
      <g transform="translate(34.696875 105.751219)scale(0.1 -0.1)">
       <use xlink:href="#DejaVuSans-30"/>
       <use x="63.623047" xlink:href="#DejaVuSans-2e"/>
       <use x="95.410156" xlink:href="#DejaVuSans-38"/>
      </g>
     </g>
    </g>
    <g id="ytick_6">
     <g id="line2d_12">
      <g>
       <use style="stroke:#000000;stroke-width:0.8;" x="57.6" xlink:href="#m93a388402b" y="53.568"/>
      </g>
     </g>
     <g id="text_13">
      <!-- 1.0 -->
      <g transform="translate(34.696875 57.367219)scale(0.1 -0.1)">
       <use xlink:href="#DejaVuSans-31"/>
       <use x="63.623047" xlink:href="#DejaVuSans-2e"/>
       <use x="95.410156" xlink:href="#DejaVuSans-30"/>
      </g>
     </g>
    </g>
    <g id="text_14">
     <!-- True Positive Rate -->
     <g transform="translate(28.617187 219.057687)rotate(-90)scale(0.1 -0.1)">
      <defs>
       <path d="M -19 4666 
L 3928 4666 
L 3928 4134 
L 2272 4134 
L 2272 0 
L 1638 0 
L 1638 4134 
L -19 4134 
L -19 4666 
z
" id="DejaVuSans-54" transform="scale(0.015625)"/>
       <path d="M 2631 2963 
Q 2534 3019 2420 3045 
Q 2306 3072 2169 3072 
Q 1681 3072 1420 2755 
Q 1159 2438 1159 1844 
L 1159 0 
L 581 0 
L 581 3500 
L 1159 3500 
L 1159 2956 
Q 1341 3275 1631 3429 
Q 1922 3584 2338 3584 
Q 2397 3584 2469 3576 
Q 2541 3569 2628 3553 
L 2631 2963 
z
" id="DejaVuSans-72" transform="scale(0.015625)"/>
       <path d="M 544 1381 
L 544 3500 
L 1119 3500 
L 1119 1403 
Q 1119 906 1312 657 
Q 1506 409 1894 409 
Q 2359 409 2629 706 
Q 2900 1003 2900 1516 
L 2900 3500 
L 3475 3500 
L 3475 0 
L 2900 0 
L 2900 538 
Q 2691 219 2414 64 
Q 2138 -91 1772 -91 
Q 1169 -91 856 284 
Q 544 659 544 1381 
z
M 1991 3584 
L 1991 3584 
z
" id="DejaVuSans-75" transform="scale(0.015625)"/>
      </defs>
      <use xlink:href="#DejaVuSans-54"/>
      <use x="46.333984" xlink:href="#DejaVuSans-72"/>
      <use x="87.447266" xlink:href="#DejaVuSans-75"/>
      <use x="150.826172" xlink:href="#DejaVuSans-65"/>
      <use x="212.349609" xlink:href="#DejaVuSans-20"/>
      <use x="244.136719" xlink:href="#DejaVuSans-50"/>
      <use x="300.814453" xlink:href="#DejaVuSans-6f"/>
      <use x="361.996094" xlink:href="#DejaVuSans-73"/>
      <use x="414.095703" xlink:href="#DejaVuSans-69"/>
      <use x="441.878906" xlink:href="#DejaVuSans-74"/>
      <use x="481.087891" xlink:href="#DejaVuSans-69"/>
      <use x="508.871094" xlink:href="#DejaVuSans-76"/>
      <use x="568.050781" xlink:href="#DejaVuSans-65"/>
      <use x="629.574219" xlink:href="#DejaVuSans-20"/>
      <use x="661.361328" xlink:href="#DejaVuSans-52"/>
      <use x="728.59375" xlink:href="#DejaVuSans-61"/>
      <use x="789.873047" xlink:href="#DejaVuSans-74"/>
      <use x="829.082031" xlink:href="#DejaVuSans-65"/>
     </g>
    </g>
   </g>
   <g id="line2d_13">
    <path clip-path="url(#p54d3bf378d)" d="M 73.832727 295.488 
L 73.832727 294.52032 
L 73.832727 294.03648 
L 73.832727 293.0688 
L 73.832727 292.58496 
L 73.832727 290.6496 
L 73.832727 289.19808 
L 73.832727 286.29504 
L 73.832727 283.87584 
L 73.832727 281.94048 
L 73.832727 280.9728 
L 74.533925 279.52128 
L 74.533925 278.5536 
L 74.533925 275.16672 
L 75.93632 272.26368 
L 75.93632 271.77984 
L 75.93632 266.4576 
L 75.93632 262.10304 
L 76.637518 258.23232 
L 77.338716 255.81312 
L 78.741111 252.42624 
L 79.442309 248.07168 
L 79.442309 242.74944 
L 81.545902 239.8464 
L 81.545902 235.49184 
L 82.948298 228.71808 
L 85.753089 217.10592 
L 87.856682 213.71904 
L 89.960275 208.88064 
L 94.868659 203.07456 
L 94.868659 201.1392 
L 98.374648 196.78464 
L 100.478241 191.4624 
L 105.386625 183.23712 
L 110.295009 176.9472 
L 117.306986 172.1088 
L 121.514172 168.23808 
L 125.020161 161.94816 
L 129.928545 154.69056 
L 132.733336 148.40064 
L 136.239325 144.04608 
L 136.239325 143.56224 
L 143.9525 136.78848 
L 146.056093 129.53088 
L 154.470465 122.75712 
L 162.18364 115.98336 
L 167.092024 109.69344 
L 174.805199 104.85504 
L 181.817177 100.98432 
L 193.03634 97.59744 
L 200.749515 95.17824 
L 210.566283 91.30752 
L 216.175865 87.4368 
L 227.395028 85.0176 
L 233.00461 82.11456 
L 242.120181 77.76 
L 246.327367 74.37312 
L 259.650124 71.47008 
L 268.765694 68.56704 
L 275.777671 65.18016 
L 286.295637 63.72864 
L 296.112405 61.79328 
L 312.941151 59.85792 
L 324.160314 57.92256 
L 333.275885 57.43872 
L 344.495048 56.47104 
L 350.805828 55.9872 
L 359.2202 55.9872 
L 363.427387 55.50336 
L 369.738166 55.50336 
L 372.542957 55.50336 
L 376.750143 55.01952 
L 378.853737 54.05184 
L 383.060923 53.568 
L 391.475296 53.568 
L 392.176493 53.568 
L 396.38368 53.568 
L 398.487273 53.568 
" style="fill:none;stroke:#1f77b4;stroke-linecap:square;stroke-width:1.5;"/>
   </g>
   <g id="line2d_14">
    <path clip-path="url(#p54d3bf378d)" d="M 73.832727 295.488 
L 74.061357 295.488 
L 74.061357 295.00416 
L 74.061357 294.03648 
L 74.061357 293.0688 
L 74.289987 292.58496 
L 74.289987 291.61728 
L 74.747247 291.61728 
L 75.433137 287.26272 
L 75.661767 285.32736 
L 75.890397 284.84352 
L 76.119027 282.42432 
L 76.804917 280.9728 
L 77.033547 278.5536 
L 77.262177 275.65056 
L 77.262177 274.19904 
L 77.948067 271.77984 
L 78.633956 269.84448 
L 79.319846 265.97376 
L 80.005736 264.52224 
L 80.691626 261.13536 
L 82.063406 257.74848 
L 84.121076 252.91008 
L 85.721485 248.55552 
L 88.007785 242.74944 
L 89.836825 239.36256 
L 92.123124 232.5888 
L 94.409424 227.26656 
L 96.467093 221.46048 
L 98.982023 218.55744 
L 102.640102 209.36448 
L 107.212702 205.9776 
L 111.328041 198.72 
L 114.52886 191.94624 
L 120.01598 187.10784 
L 120.473239 187.10784 
L 126.188988 179.3664 
L 130.304328 173.07648 
L 133.733777 168.23808 
L 139.678156 160.98048 
L 146.308425 154.20672 
L 152.481434 148.40064 
L 161.855262 140.17536 
L 162.083892 140.17536 
L 169.628681 132.91776 
L 169.857311 132.43392 
L 175.80169 126.62784 
L 184.489629 120.33792 
L 184.946889 120.33792 
L 191.119898 114.048 
L 200.265096 104.3712 
L 211.696594 100.01664 
L 211.696594 99.5328 
L 224.042612 95.17824 
L 234.33096 88.40448 
L 234.55959 88.40448 
L 243.476159 82.5984 
L 253.078617 78.72768 
L 253.307247 78.24384 
L 264.510115 72.9216 
L 271.369014 70.98624 
L 278.456543 68.0832 
L 278.685173 68.0832 
L 286.001332 67.11552 
L 294.00338 65.18016 
L 304.977618 60.8256 
L 312.293777 58.89024 
L 318.238156 56.95488 
L 324.639795 56.47104 
L 331.727324 55.01952 
L 336.528553 54.53568 
L 342.472932 54.53568 
L 347.731421 53.568 
L 359.162919 53.568 
L 365.564558 53.568 
L 371.508937 53.568 
L 379.053726 53.568 
L 386.141255 53.568 
L 393.000154 53.568 
L 398.487273 53.568 
" style="fill:none;stroke:#ff7f0e;stroke-linecap:square;stroke-width:1.5;"/>
   </g>
   <g id="line2d_15">
    <path clip-path="url(#p54d3bf378d)" d="M 73.832727 295.488 
L 73.832727 294.03648 
L 73.832727 287.26272 
L 73.832727 282.42432 
L 77.361581 270.81216 
L 77.361581 257.74848 
L 84.419289 244.6848 
L 84.419289 233.07264 
L 84.419289 219.52512 
L 91.476996 211.29984 
L 98.534704 202.59072 
L 119.707826 190.49472 
L 126.765534 179.85024 
L 140.880949 167.75424 
L 147.938656 156.14208 
L 162.054071 142.11072 
L 169.111779 135.8208 
L 179.69834 128.07936 
L 204.400316 121.78944 
L 218.515731 114.048 
L 232.631146 110.17728 
L 246.746561 103.88736 
L 250.275415 95.17824 
L 257.333123 89.856 
L 274.977391 85.98528 
L 282.035099 81.14688 
L 292.62166 78.24384 
L 296.150514 74.37312 
L 310.265929 73.40544 
L 324.381344 70.5024 
L 334.967905 67.59936 
L 338.496759 65.18016 
L 342.025613 64.69632 
L 342.025613 64.21248 
L 342.025613 62.27712 
L 356.141028 59.37408 
L 363.198735 58.89024 
L 363.198735 57.43872 
L 373.785296 56.95488 
L 373.785296 56.47104 
L 377.31415 55.01952 
L 391.429565 55.01952 
L 391.429565 54.53568 
L 394.958419 53.568 
L 398.487273 53.568 
" style="fill:none;stroke:#2ca02c;stroke-linecap:square;stroke-width:1.5;"/>
   </g>
   <g id="line2d_16">
    <path clip-path="url(#p54d3bf378d)" d="M 73.832727 295.488 
L 73.832727 295.00416 
L 73.832727 294.52032 
L 73.832727 291.13344 
L 73.832727 288.2304 
L 73.832727 283.87584 
L 73.832727 277.58592 
L 73.832727 268.39296 
L 75.578182 260.65152 
L 77.323636 253.39392 
L 77.323636 241.78176 
L 80.814545 234.52416 
L 80.814545 227.7504 
L 82.56 223.39584 
L 86.050909 214.20288 
L 91.287273 205.00992 
L 91.287273 195.81696 
L 93.032727 186.14016 
L 100.014545 174.528 
L 103.505455 161.46432 
L 103.505455 160.98048 
L 110.487273 156.14208 
L 110.487273 151.30368 
L 110.487273 150.81984 
L 113.978182 142.11072 
L 120.96 134.36928 
L 126.196364 126.144 
L 129.687273 118.40256 
L 131.432727 112.11264 
L 131.432727 111.6288 
L 141.905455 106.7904 
L 157.614545 99.04896 
L 157.614545 98.08128 
L 166.341818 95.17824 
L 169.832727 92.75904 
L 169.832727 91.79136 
L 176.814545 89.37216 
L 182.050909 85.98528 
L 189.032727 84.04992 
L 189.032727 83.56608 
L 194.269091 82.5984 
L 194.269091 82.11456 
L 197.76 79.21152 
L 201.250909 77.76 
L 211.723636 73.88928 
L 225.687273 70.98624 
L 227.432727 70.98624 
L 234.414545 70.5024 
L 236.16 69.53472 
L 244.887273 69.05088 
L 251.869091 68.0832 
L 257.105455 67.11552 
L 262.341818 62.76096 
L 269.323636 61.79328 
L 272.814545 61.79328 
L 278.050909 61.30944 
L 281.541818 61.30944 
L 285.032727 60.34176 
L 286.778182 60.34176 
L 295.505455 59.85792 
L 297.250909 58.89024 
L 302.487273 57.43872 
L 304.232727 57.43872 
L 304.232727 55.50336 
L 309.469091 55.50336 
L 316.450909 55.01952 
L 319.941818 55.01952 
L 325.178182 55.01952 
L 328.669091 55.01952 
L 328.669091 54.53568 
L 333.905455 54.53568 
L 335.650909 54.53568 
L 340.887273 54.53568 
L 342.632727 54.53568 
L 346.123636 54.53568 
L 351.36 54.05184 
L 354.850909 54.05184 
L 354.850909 53.568 
L 360.087273 53.568 
L 361.832727 53.568 
L 365.323636 53.568 
L 367.069091 53.568 
L 374.050909 53.568 
L 377.541818 53.568 
L 379.287273 53.568 
L 382.778182 53.568 
L 388.014545 53.568 
L 398.487273 53.568 
" style="fill:none;stroke:#d62728;stroke-linecap:square;stroke-width:1.5;"/>
   </g>
   <g id="line2d_17">
    <path clip-path="url(#p54d3bf378d)" d="M 73.832727 295.488 
L 73.832727 262.58688 
L 80.198503 225.3312 
L 80.198503 224.84736 
L 92.930053 191.94624 
L 92.930053 191.4624 
L 92.930053 167.75424 
L 105.661604 149.85216 
L 124.75893 133.88544 
L 124.75893 132.91776 
L 137.490481 124.20864 
L 143.856257 113.56416 
L 143.856257 113.08032 
L 143.856257 108.72576 
L 150.222032 101.46816 
L 156.587807 97.1136 
L 169.319358 93.72672 
L 169.319358 93.24288 
L 169.319358 90.33984 
L 169.319358 85.0176 
L 169.319358 84.53376 
L 175.685134 82.11456 
L 175.685134 81.63072 
L 175.685134 79.21152 
L 175.685134 78.72768 
L 182.050909 77.76 
L 188.416684 75.82464 
L 188.416684 73.88928 
L 188.416684 72.43776 
L 194.78246 71.47008 
L 194.78246 70.5024 
L 194.78246 68.56704 
L 194.78246 67.11552 
L 194.78246 62.27712 
L 194.78246 61.79328 
L 201.148235 61.79328 
L 201.148235 60.8256 
L 201.148235 58.89024 
L 201.148235 57.92256 
L 226.611337 57.92256 
L 226.611337 56.95488 
L 232.977112 55.9872 
L 239.342888 55.9872 
L 239.342888 55.50336 
L 258.440214 55.50336 
L 271.171765 55.50336 
L 277.53754 55.01952 
L 290.269091 55.01952 
L 303.000642 54.53568 
L 309.366417 54.05184 
L 322.097968 54.05184 
L 322.097968 53.568 
L 398.487273 53.568 
" style="fill:none;stroke:#9467bd;stroke-linecap:square;stroke-width:1.5;"/>
   </g>
   <g id="line2d_18">
    <path clip-path="url(#p54d3bf378d)" d="M 73.832727 295.488 
L 73.832727 277.10208 
L 73.832727 276.61824 
L 81.751131 260.16768 
L 81.751131 242.2656 
L 81.751131 241.78176 
L 81.751131 221.94432 
L 81.751131 198.23616 
L 81.751131 196.78464 
L 81.751131 186.624 
L 81.751131 185.65632 
L 89.669534 167.75424 
L 97.587938 151.30368 
L 121.343149 134.36928 
L 129.261552 124.20864 
L 129.261552 123.7248 
L 145.098359 116.4672 
L 145.098359 115.98336 
L 145.098359 109.2096 
L 145.098359 100.98432 
L 160.935166 94.21056 
L 192.60878 89.37216 
L 216.363991 85.50144 
L 216.363991 80.66304 
L 240.119202 78.24384 
L 248.037605 75.3408 
L 255.956009 73.88928 
L 263.874412 70.5024 
L 271.792816 65.664 
L 279.71122 63.72864 
L 287.629623 60.8256 
L 303.46643 59.37408 
L 311.384834 58.89024 
L 343.058448 57.43872 
L 343.058448 56.47104 
L 366.813659 55.50336 
L 366.813659 55.01952 
L 382.650466 54.53568 
L 382.650466 53.568 
L 398.487273 53.568 
" style="fill:none;stroke:#8c564b;stroke-linecap:square;stroke-width:1.5;"/>
   </g>
   <g id="line2d_19">
    <path clip-path="url(#p54d3bf378d)" d="M 73.832727 295.488 
L 73.832727 292.58496 
L 73.832727 289.19808 
L 73.832727 288.2304 
L 73.832727 284.84352 
L 73.832727 283.392 
L 77.50114 279.52128 
L 77.50114 275.16672 
L 79.335347 270.81216 
L 79.335347 265.97376 
L 83.00376 261.6192 
L 83.00376 253.39392 
L 83.00376 247.58784 
L 83.00376 243.23328 
L 83.00376 234.04032 
L 88.506379 223.39584 
L 90.340586 215.6544 
L 90.340586 206.94528 
L 94.008998 199.68768 
L 99.511618 190.97856 
L 105.014237 184.2048 
L 110.516857 175.01184 
L 119.687889 165.81888 
L 127.024715 160.0128 
L 134.361541 149.85216 
L 141.698367 143.56224 
L 152.703606 136.30464 
L 165.543051 129.04704 
L 171.04567 120.82176 
L 180.216703 114.53184 
L 193.056148 107.27424 
L 202.22718 100.98432 
L 211.398213 97.59744 
L 226.071864 94.21056 
L 233.40869 90.82368 
L 240.745516 85.98528 
L 244.413929 81.14688 
L 253.584961 76.30848 
L 264.5902 74.37312 
L 268.258613 70.5024 
L 273.761233 69.53472 
L 279.263852 67.59936 
L 292.103297 65.664 
L 301.27433 64.21248 
L 306.776949 62.27712 
L 310.445362 60.34176 
L 317.782188 59.37408 
L 321.450601 58.4064 
L 325.119014 56.95488 
L 325.119014 55.9872 
L 332.45584 55.9872 
L 339.792666 55.01952 
L 339.792666 54.53568 
L 345.295285 54.53568 
L 347.129492 54.53568 
L 358.13473 54.53568 
L 365.471556 54.53568 
L 367.305763 54.05184 
L 380.145208 54.05184 
L 385.647827 53.568 
L 387.482034 53.568 
L 391.150447 53.568 
L 396.653066 53.568 
L 398.487273 53.568 
" style="fill:none;stroke:#e377c2;stroke-linecap:square;stroke-width:1.5;"/>
   </g>
   <g id="line2d_20">
    <path clip-path="url(#p54d3bf378d)" d="M 73.832727 295.488 
L 73.832727 295.00416 
L 73.832727 294.52032 
L 73.832727 293.55264 
L 73.832727 291.61728 
L 73.832727 290.16576 
L 73.832727 284.35968 
L 73.832727 281.94048 
L 73.832727 276.1344 
L 73.832727 271.77984 
L 73.832727 270.32832 
L 73.832727 266.94144 
L 73.832727 260.65152 
L 73.832727 255.32928 
L 73.832727 249.03936 
L 78.827413 243.23328 
L 78.827413 235.008 
L 80.492308 228.23424 
L 82.157203 221.94432 
L 82.157203 215.17056 
L 87.151888 205.49376 
L 90.481678 198.23616 
L 90.481678 197.75232 
L 92.146573 189.0432 
L 93.811469 183.23712 
L 95.476364 177.91488 
L 100.471049 167.75424 
L 108.795524 160.0128 
L 117.12 149.85216 
L 123.77958 144.52992 
L 132.104056 135.8208 
L 145.423217 127.59552 
L 155.412587 117.91872 
L 162.072168 113.08032 
L 172.061538 108.72576 
L 178.721119 101.46816 
L 193.705175 95.66208 
L 203.694545 89.856 
L 218.678601 85.0176 
L 231.997762 82.11456 
L 233.662657 82.11456 
L 238.657343 78.72768 
L 243.652028 75.82464 
L 251.976503 72.9216 
L 263.630769 71.47008 
L 275.285035 69.05088 
L 281.944615 68.0832 
L 288.604196 64.69632 
L 296.928671 62.76096 
L 308.582937 61.79328 
L 315.242517 61.79328 
L 328.561678 60.34176 
L 335.221259 59.37408 
L 340.215944 58.89024 
L 348.54042 58.4064 
L 355.2 58.4064 
L 361.85958 57.92256 
L 363.524476 57.92256 
L 366.854266 57.43872 
L 370.184056 55.50336 
L 370.184056 54.53568 
L 375.178741 54.05184 
L 376.843636 54.05184 
L 381.838322 54.05184 
L 388.497902 54.05184 
L 390.162797 53.568 
L 391.827692 53.568 
L 395.157483 53.568 
L 398.487273 53.568 
" style="fill:none;stroke:#7f7f7f;stroke-linecap:square;stroke-width:1.5;"/>
   </g>
   <g id="line2d_21">
    <path clip-path="url(#p54d3bf378d)" d="M 73.832727 295.488 
L 73.832727 294.52032 
L 73.832727 294.03648 
L 73.832727 291.61728 
L 73.832727 288.2304 
L 73.832727 283.392 
L 73.832727 276.61824 
L 73.832727 263.55456 
L 77.652193 253.87776 
L 77.652193 247.58784 
L 77.652193 236.94336 
L 77.652193 225.81504 
L 79.561925 212.75136 
L 81.471658 204.52608 
L 83.38139 197.75232 
L 83.38139 187.59168 
L 85.291123 179.85024 
L 89.110588 170.17344 
L 89.110588 165.33504 
L 91.020321 157.5936 
L 94.839786 147.43296 
L 94.839786 140.6592 
L 102.478717 133.4016 
L 104.388449 127.11168 
L 104.388449 123.24096 
L 112.02738 116.4672 
L 119.66631 111.14496 
L 125.395508 102.91968 
L 131.124706 97.59744 
L 134.944171 90.82368 
L 146.402567 88.88832 
L 152.131765 85.50144 
L 161.680428 82.5984 
L 173.138824 79.69536 
L 182.687487 77.76 
L 190.326417 72.43776 
L 196.055615 70.5024 
L 203.694545 67.59936 
L 207.514011 66.63168 
L 213.243209 65.664 
L 226.611337 63.2448 
L 234.250267 62.27712 
L 236.16 61.79328 
L 251.437861 60.34176 
L 255.257326 59.85792 
L 262.896257 57.43872 
L 270.535187 56.95488 
L 274.354652 56.95488 
L 280.08385 56.47104 
L 291.542246 55.50336 
L 308.72984 55.50336 
L 314.459037 55.50336 
L 324.007701 55.50336 
L 325.917433 54.53568 
L 333.556364 54.05184 
L 343.105027 54.05184 
L 350.743957 54.05184 
L 354.563422 54.05184 
L 360.29262 54.05184 
L 362.202353 54.05184 
L 366.021818 54.05184 
L 371.751016 53.568 
L 377.480214 53.568 
L 381.299679 53.568 
L 385.119144 53.568 
L 388.93861 53.568 
L 392.758075 53.568 
L 398.487273 53.568 
" style="fill:none;stroke:#bcbd22;stroke-linecap:square;stroke-width:1.5;"/>
   </g>
   <g id="line2d_22">
    <path clip-path="url(#p54d3bf378d)" d="M 73.832727 295.488 
L 398.487273 53.568 
" style="fill:none;stroke:#000000;stroke-dasharray:3.7,1.6;stroke-dashoffset:0;"/>
   </g>
   <g id="patch_3">
    <path d="M 57.6 307.584 
L 57.6 41.472 
" style="fill:none;stroke:#000000;stroke-linecap:square;stroke-linejoin:miter;stroke-width:0.8;"/>
   </g>
   <g id="patch_4">
    <path d="M 414.72 307.584 
L 414.72 41.472 
" style="fill:none;stroke:#000000;stroke-linecap:square;stroke-linejoin:miter;stroke-width:0.8;"/>
   </g>
   <g id="patch_5">
    <path d="M 57.6 307.584 
L 414.72 307.584 
" style="fill:none;stroke:#000000;stroke-linecap:square;stroke-linejoin:miter;stroke-width:0.8;"/>
   </g>
   <g id="patch_6">
    <path d="M 57.6 41.472 
L 414.72 41.472 
" style="fill:none;stroke:#000000;stroke-linecap:square;stroke-linejoin:miter;stroke-width:0.8;"/>
   </g>
   <g id="legend_1">
    <g id="patch_7">
     <path d="M 226.680937 302.584 
L 407.72 302.584 
Q 409.72 302.584 409.72 300.584 
L 409.72 169.20275 
Q 409.72 167.20275 407.72 167.20275 
L 226.680937 167.20275 
Q 224.680937 167.20275 224.680937 169.20275 
L 224.680937 300.584 
Q 224.680937 302.584 226.680937 302.584 
z
" style="fill:#ffffff;opacity:0.8;stroke:#cccccc;stroke-linejoin:miter;"/>
    </g>
    <g id="line2d_23">
     <path d="M 228.680937 175.301187 
L 248.680937 175.301187 
" style="fill:none;stroke:#1f77b4;stroke-linecap:square;stroke-width:1.5;"/>
    </g>
    <g id="line2d_24"/>
    <g id="text_15">
     <!-- Cancer AUC=0.8091 -->
     <g transform="translate(256.680938 178.801187)scale(0.1 -0.1)">
      <defs>
       <path d="M 4122 4306 
L 4122 3641 
Q 3803 3938 3442 4084 
Q 3081 4231 2675 4231 
Q 1875 4231 1450 3742 
Q 1025 3253 1025 2328 
Q 1025 1406 1450 917 
Q 1875 428 2675 428 
Q 3081 428 3442 575 
Q 3803 722 4122 1019 
L 4122 359 
Q 3791 134 3420 21 
Q 3050 -91 2638 -91 
Q 1578 -91 968 557 
Q 359 1206 359 2328 
Q 359 3453 968 4101 
Q 1578 4750 2638 4750 
Q 3056 4750 3426 4639 
Q 3797 4528 4122 4306 
z
" id="DejaVuSans-43" transform="scale(0.015625)"/>
       <path d="M 3513 2113 
L 3513 0 
L 2938 0 
L 2938 2094 
Q 2938 2591 2744 2837 
Q 2550 3084 2163 3084 
Q 1697 3084 1428 2787 
Q 1159 2491 1159 1978 
L 1159 0 
L 581 0 
L 581 3500 
L 1159 3500 
L 1159 2956 
Q 1366 3272 1645 3428 
Q 1925 3584 2291 3584 
Q 2894 3584 3203 3211 
Q 3513 2838 3513 2113 
z
" id="DejaVuSans-6e" transform="scale(0.015625)"/>
       <path d="M 3122 3366 
L 3122 2828 
Q 2878 2963 2633 3030 
Q 2388 3097 2138 3097 
Q 1578 3097 1268 2742 
Q 959 2388 959 1747 
Q 959 1106 1268 751 
Q 1578 397 2138 397 
Q 2388 397 2633 464 
Q 2878 531 3122 666 
L 3122 134 
Q 2881 22 2623 -34 
Q 2366 -91 2075 -91 
Q 1284 -91 818 406 
Q 353 903 353 1747 
Q 353 2603 823 3093 
Q 1294 3584 2113 3584 
Q 2378 3584 2631 3529 
Q 2884 3475 3122 3366 
z
" id="DejaVuSans-63" transform="scale(0.015625)"/>
       <path d="M 2188 4044 
L 1331 1722 
L 3047 1722 
L 2188 4044 
z
M 1831 4666 
L 2547 4666 
L 4325 0 
L 3669 0 
L 3244 1197 
L 1141 1197 
L 716 0 
L 50 0 
L 1831 4666 
z
" id="DejaVuSans-41" transform="scale(0.015625)"/>
       <path d="M 556 4666 
L 1191 4666 
L 1191 1831 
Q 1191 1081 1462 751 
Q 1734 422 2344 422 
Q 2950 422 3222 751 
Q 3494 1081 3494 1831 
L 3494 4666 
L 4128 4666 
L 4128 1753 
Q 4128 841 3676 375 
Q 3225 -91 2344 -91 
Q 1459 -91 1007 375 
Q 556 841 556 1753 
L 556 4666 
z
" id="DejaVuSans-55" transform="scale(0.015625)"/>
       <path d="M 678 2906 
L 4684 2906 
L 4684 2381 
L 678 2381 
L 678 2906 
z
M 678 1631 
L 4684 1631 
L 4684 1100 
L 678 1100 
L 678 1631 
z
" id="DejaVuSans-3d" transform="scale(0.015625)"/>
       <path d="M 703 97 
L 703 672 
Q 941 559 1184 500 
Q 1428 441 1663 441 
Q 2288 441 2617 861 
Q 2947 1281 2994 2138 
Q 2813 1869 2534 1725 
Q 2256 1581 1919 1581 
Q 1219 1581 811 2004 
Q 403 2428 403 3163 
Q 403 3881 828 4315 
Q 1253 4750 1959 4750 
Q 2769 4750 3195 4129 
Q 3622 3509 3622 2328 
Q 3622 1225 3098 567 
Q 2575 -91 1691 -91 
Q 1453 -91 1209 -44 
Q 966 3 703 97 
z
M 1959 2075 
Q 2384 2075 2632 2365 
Q 2881 2656 2881 3163 
Q 2881 3666 2632 3958 
Q 2384 4250 1959 4250 
Q 1534 4250 1286 3958 
Q 1038 3666 1038 3163 
Q 1038 2656 1286 2365 
Q 1534 2075 1959 2075 
z
" id="DejaVuSans-39" transform="scale(0.015625)"/>
      </defs>
      <use xlink:href="#DejaVuSans-43"/>
      <use x="69.824219" xlink:href="#DejaVuSans-61"/>
      <use x="131.103516" xlink:href="#DejaVuSans-6e"/>
      <use x="194.482422" xlink:href="#DejaVuSans-63"/>
      <use x="249.462891" xlink:href="#DejaVuSans-65"/>
      <use x="310.986328" xlink:href="#DejaVuSans-72"/>
      <use x="352.099609" xlink:href="#DejaVuSans-20"/>
      <use x="383.886719" xlink:href="#DejaVuSans-41"/>
      <use x="452.294922" xlink:href="#DejaVuSans-55"/>
      <use x="525.488281" xlink:href="#DejaVuSans-43"/>
      <use x="595.3125" xlink:href="#DejaVuSans-3d"/>
      <use x="679.101562" xlink:href="#DejaVuSans-30"/>
      <use x="742.724609" xlink:href="#DejaVuSans-2e"/>
      <use x="774.511719" xlink:href="#DejaVuSans-38"/>
      <use x="838.134766" xlink:href="#DejaVuSans-30"/>
      <use x="901.757812" xlink:href="#DejaVuSans-39"/>
      <use x="965.380859" xlink:href="#DejaVuSans-31"/>
     </g>
    </g>
    <g id="line2d_25">
     <path d="M 228.680937 189.979312 
L 248.680937 189.979312 
" style="fill:none;stroke:#ff7f0e;stroke-linecap:square;stroke-width:1.5;"/>
    </g>
    <g id="line2d_26"/>
    <g id="text_16">
     <!-- Healthy AUC=0.7688 -->
     <g transform="translate(256.680938 193.479312)scale(0.1 -0.1)">
      <defs>
       <path d="M 628 4666 
L 1259 4666 
L 1259 2753 
L 3553 2753 
L 3553 4666 
L 4184 4666 
L 4184 0 
L 3553 0 
L 3553 2222 
L 1259 2222 
L 1259 0 
L 628 0 
L 628 4666 
z
" id="DejaVuSans-48" transform="scale(0.015625)"/>
       <path d="M 3513 2113 
L 3513 0 
L 2938 0 
L 2938 2094 
Q 2938 2591 2744 2837 
Q 2550 3084 2163 3084 
Q 1697 3084 1428 2787 
Q 1159 2491 1159 1978 
L 1159 0 
L 581 0 
L 581 4863 
L 1159 4863 
L 1159 2956 
Q 1366 3272 1645 3428 
Q 1925 3584 2291 3584 
Q 2894 3584 3203 3211 
Q 3513 2838 3513 2113 
z
" id="DejaVuSans-68" transform="scale(0.015625)"/>
       <path d="M 2059 -325 
Q 1816 -950 1584 -1140 
Q 1353 -1331 966 -1331 
L 506 -1331 
L 506 -850 
L 844 -850 
Q 1081 -850 1212 -737 
Q 1344 -625 1503 -206 
L 1606 56 
L 191 3500 
L 800 3500 
L 1894 763 
L 2988 3500 
L 3597 3500 
L 2059 -325 
z
" id="DejaVuSans-79" transform="scale(0.015625)"/>
       <path d="M 525 4666 
L 3525 4666 
L 3525 4397 
L 1831 0 
L 1172 0 
L 2766 4134 
L 525 4134 
L 525 4666 
z
" id="DejaVuSans-37" transform="scale(0.015625)"/>
      </defs>
      <use xlink:href="#DejaVuSans-48"/>
      <use x="75.195312" xlink:href="#DejaVuSans-65"/>
      <use x="136.71875" xlink:href="#DejaVuSans-61"/>
      <use x="197.998047" xlink:href="#DejaVuSans-6c"/>
      <use x="225.78125" xlink:href="#DejaVuSans-74"/>
      <use x="264.990234" xlink:href="#DejaVuSans-68"/>
      <use x="328.369141" xlink:href="#DejaVuSans-79"/>
      <use x="387.548828" xlink:href="#DejaVuSans-20"/>
      <use x="419.335938" xlink:href="#DejaVuSans-41"/>
      <use x="487.744141" xlink:href="#DejaVuSans-55"/>
      <use x="560.9375" xlink:href="#DejaVuSans-43"/>
      <use x="630.761719" xlink:href="#DejaVuSans-3d"/>
      <use x="714.550781" xlink:href="#DejaVuSans-30"/>
      <use x="778.173828" xlink:href="#DejaVuSans-2e"/>
      <use x="809.960938" xlink:href="#DejaVuSans-37"/>
      <use x="873.583984" xlink:href="#DejaVuSans-36"/>
      <use x="937.207031" xlink:href="#DejaVuSans-38"/>
      <use x="1000.830078" xlink:href="#DejaVuSans-38"/>
     </g>
    </g>
    <g id="line2d_27">
     <path d="M 228.680937 204.657437 
L 248.680937 204.657437 
" style="fill:none;stroke:#2ca02c;stroke-linecap:square;stroke-width:1.5;"/>
    </g>
    <g id="line2d_28"/>
    <g id="text_17">
     <!-- Tumor AUC=0.7392 -->
     <g transform="translate(256.680938 208.157437)scale(0.1 -0.1)">
      <defs>
       <path d="M 3328 2828 
Q 3544 3216 3844 3400 
Q 4144 3584 4550 3584 
Q 5097 3584 5394 3201 
Q 5691 2819 5691 2113 
L 5691 0 
L 5113 0 
L 5113 2094 
Q 5113 2597 4934 2840 
Q 4756 3084 4391 3084 
Q 3944 3084 3684 2787 
Q 3425 2491 3425 1978 
L 3425 0 
L 2847 0 
L 2847 2094 
Q 2847 2600 2669 2842 
Q 2491 3084 2119 3084 
Q 1678 3084 1418 2786 
Q 1159 2488 1159 1978 
L 1159 0 
L 581 0 
L 581 3500 
L 1159 3500 
L 1159 2956 
Q 1356 3278 1631 3431 
Q 1906 3584 2284 3584 
Q 2666 3584 2933 3390 
Q 3200 3197 3328 2828 
z
" id="DejaVuSans-6d" transform="scale(0.015625)"/>
       <path d="M 2597 2516 
Q 3050 2419 3304 2112 
Q 3559 1806 3559 1356 
Q 3559 666 3084 287 
Q 2609 -91 1734 -91 
Q 1441 -91 1130 -33 
Q 819 25 488 141 
L 488 750 
Q 750 597 1062 519 
Q 1375 441 1716 441 
Q 2309 441 2620 675 
Q 2931 909 2931 1356 
Q 2931 1769 2642 2001 
Q 2353 2234 1838 2234 
L 1294 2234 
L 1294 2753 
L 1863 2753 
Q 2328 2753 2575 2939 
Q 2822 3125 2822 3475 
Q 2822 3834 2567 4026 
Q 2313 4219 1838 4219 
Q 1578 4219 1281 4162 
Q 984 4106 628 3988 
L 628 4550 
Q 988 4650 1302 4700 
Q 1616 4750 1894 4750 
Q 2613 4750 3031 4423 
Q 3450 4097 3450 3541 
Q 3450 3153 3228 2886 
Q 3006 2619 2597 2516 
z
" id="DejaVuSans-33" transform="scale(0.015625)"/>
      </defs>
      <use xlink:href="#DejaVuSans-54"/>
      <use x="45.958984" xlink:href="#DejaVuSans-75"/>
      <use x="109.337891" xlink:href="#DejaVuSans-6d"/>
      <use x="206.75" xlink:href="#DejaVuSans-6f"/>
      <use x="267.931641" xlink:href="#DejaVuSans-72"/>
      <use x="309.044922" xlink:href="#DejaVuSans-20"/>
      <use x="340.832031" xlink:href="#DejaVuSans-41"/>
      <use x="409.240234" xlink:href="#DejaVuSans-55"/>
      <use x="482.433594" xlink:href="#DejaVuSans-43"/>
      <use x="552.257812" xlink:href="#DejaVuSans-3d"/>
      <use x="636.046875" xlink:href="#DejaVuSans-30"/>
      <use x="699.669922" xlink:href="#DejaVuSans-2e"/>
      <use x="731.457031" xlink:href="#DejaVuSans-37"/>
      <use x="795.080078" xlink:href="#DejaVuSans-33"/>
      <use x="858.703125" xlink:href="#DejaVuSans-39"/>
      <use x="922.326172" xlink:href="#DejaVuSans-32"/>
     </g>
    </g>
    <g id="line2d_29">
     <path d="M 228.680937 219.335562 
L 248.680937 219.335562 
" style="fill:none;stroke:#d62728;stroke-linecap:square;stroke-width:1.5;"/>
    </g>
    <g id="line2d_30"/>
    <g id="text_18">
     <!-- Liver AUC=0.8566 -->
     <g transform="translate(256.680938 222.835562)scale(0.1 -0.1)">
      <defs>
       <path d="M 628 4666 
L 1259 4666 
L 1259 531 
L 3531 531 
L 3531 0 
L 628 0 
L 628 4666 
z
" id="DejaVuSans-4c" transform="scale(0.015625)"/>
       <path d="M 691 4666 
L 3169 4666 
L 3169 4134 
L 1269 4134 
L 1269 2991 
Q 1406 3038 1543 3061 
Q 1681 3084 1819 3084 
Q 2600 3084 3056 2656 
Q 3513 2228 3513 1497 
Q 3513 744 3044 326 
Q 2575 -91 1722 -91 
Q 1428 -91 1123 -41 
Q 819 9 494 109 
L 494 744 
Q 775 591 1075 516 
Q 1375 441 1709 441 
Q 2250 441 2565 725 
Q 2881 1009 2881 1497 
Q 2881 1984 2565 2268 
Q 2250 2553 1709 2553 
Q 1456 2553 1204 2497 
Q 953 2441 691 2322 
L 691 4666 
z
" id="DejaVuSans-35" transform="scale(0.015625)"/>
      </defs>
      <use xlink:href="#DejaVuSans-4c"/>
      <use x="55.712891" xlink:href="#DejaVuSans-69"/>
      <use x="83.496094" xlink:href="#DejaVuSans-76"/>
      <use x="142.675781" xlink:href="#DejaVuSans-65"/>
      <use x="204.199219" xlink:href="#DejaVuSans-72"/>
      <use x="245.3125" xlink:href="#DejaVuSans-20"/>
      <use x="277.099609" xlink:href="#DejaVuSans-41"/>
      <use x="345.507812" xlink:href="#DejaVuSans-55"/>
      <use x="418.701172" xlink:href="#DejaVuSans-43"/>
      <use x="488.525391" xlink:href="#DejaVuSans-3d"/>
      <use x="572.314453" xlink:href="#DejaVuSans-30"/>
      <use x="635.9375" xlink:href="#DejaVuSans-2e"/>
      <use x="667.724609" xlink:href="#DejaVuSans-38"/>
      <use x="731.347656" xlink:href="#DejaVuSans-35"/>
      <use x="794.970703" xlink:href="#DejaVuSans-36"/>
      <use x="858.59375" xlink:href="#DejaVuSans-36"/>
     </g>
    </g>
    <g id="line2d_31">
     <path d="M 228.680937 234.013687 
L 248.680937 234.013687 
" style="fill:none;stroke:#9467bd;stroke-linecap:square;stroke-width:1.5;"/>
    </g>
    <g id="line2d_32"/>
    <g id="text_19">
     <!-- Bowel AUC=0.8770 -->
     <g transform="translate(256.680938 237.513687)scale(0.1 -0.1)">
      <defs>
       <path d="M 1259 2228 
L 1259 519 
L 2272 519 
Q 2781 519 3026 730 
Q 3272 941 3272 1375 
Q 3272 1813 3026 2020 
Q 2781 2228 2272 2228 
L 1259 2228 
z
M 1259 4147 
L 1259 2741 
L 2194 2741 
Q 2656 2741 2882 2914 
Q 3109 3088 3109 3444 
Q 3109 3797 2882 3972 
Q 2656 4147 2194 4147 
L 1259 4147 
z
M 628 4666 
L 2241 4666 
Q 2963 4666 3353 4366 
Q 3744 4066 3744 3513 
Q 3744 3084 3544 2831 
Q 3344 2578 2956 2516 
Q 3422 2416 3680 2098 
Q 3938 1781 3938 1306 
Q 3938 681 3513 340 
Q 3088 0 2303 0 
L 628 0 
L 628 4666 
z
" id="DejaVuSans-42" transform="scale(0.015625)"/>
       <path d="M 269 3500 
L 844 3500 
L 1563 769 
L 2278 3500 
L 2956 3500 
L 3675 769 
L 4391 3500 
L 4966 3500 
L 4050 0 
L 3372 0 
L 2619 2869 
L 1863 0 
L 1184 0 
L 269 3500 
z
" id="DejaVuSans-77" transform="scale(0.015625)"/>
      </defs>
      <use xlink:href="#DejaVuSans-42"/>
      <use x="68.603516" xlink:href="#DejaVuSans-6f"/>
      <use x="129.785156" xlink:href="#DejaVuSans-77"/>
      <use x="211.572266" xlink:href="#DejaVuSans-65"/>
      <use x="273.095703" xlink:href="#DejaVuSans-6c"/>
      <use x="300.878906" xlink:href="#DejaVuSans-20"/>
      <use x="332.666016" xlink:href="#DejaVuSans-41"/>
      <use x="401.074219" xlink:href="#DejaVuSans-55"/>
      <use x="474.267578" xlink:href="#DejaVuSans-43"/>
      <use x="544.091797" xlink:href="#DejaVuSans-3d"/>
      <use x="627.880859" xlink:href="#DejaVuSans-30"/>
      <use x="691.503906" xlink:href="#DejaVuSans-2e"/>
      <use x="723.291016" xlink:href="#DejaVuSans-38"/>
      <use x="786.914062" xlink:href="#DejaVuSans-37"/>
      <use x="850.537109" xlink:href="#DejaVuSans-37"/>
      <use x="914.160156" xlink:href="#DejaVuSans-30"/>
     </g>
    </g>
    <g id="line2d_33">
     <path d="M 228.680937 248.691812 
L 248.680937 248.691812 
" style="fill:none;stroke:#8c564b;stroke-linecap:square;stroke-width:1.5;"/>
    </g>
    <g id="line2d_34"/>
    <g id="text_20">
     <!-- Neurological AUC=0.8503 -->
     <g transform="translate(256.680938 252.191812)scale(0.1 -0.1)">
      <defs>
       <path d="M 628 4666 
L 1478 4666 
L 3547 763 
L 3547 4666 
L 4159 4666 
L 4159 0 
L 3309 0 
L 1241 3903 
L 1241 0 
L 628 0 
L 628 4666 
z
" id="DejaVuSans-4e" transform="scale(0.015625)"/>
       <path d="M 2906 1791 
Q 2906 2416 2648 2759 
Q 2391 3103 1925 3103 
Q 1463 3103 1205 2759 
Q 947 2416 947 1791 
Q 947 1169 1205 825 
Q 1463 481 1925 481 
Q 2391 481 2648 825 
Q 2906 1169 2906 1791 
z
M 3481 434 
Q 3481 -459 3084 -895 
Q 2688 -1331 1869 -1331 
Q 1566 -1331 1297 -1286 
Q 1028 -1241 775 -1147 
L 775 -588 
Q 1028 -725 1275 -790 
Q 1522 -856 1778 -856 
Q 2344 -856 2625 -561 
Q 2906 -266 2906 331 
L 2906 616 
Q 2728 306 2450 153 
Q 2172 0 1784 0 
Q 1141 0 747 490 
Q 353 981 353 1791 
Q 353 2603 747 3093 
Q 1141 3584 1784 3584 
Q 2172 3584 2450 3431 
Q 2728 3278 2906 2969 
L 2906 3500 
L 3481 3500 
L 3481 434 
z
" id="DejaVuSans-67" transform="scale(0.015625)"/>
      </defs>
      <use xlink:href="#DejaVuSans-4e"/>
      <use x="74.804688" xlink:href="#DejaVuSans-65"/>
      <use x="136.328125" xlink:href="#DejaVuSans-75"/>
      <use x="199.707031" xlink:href="#DejaVuSans-72"/>
      <use x="238.570312" xlink:href="#DejaVuSans-6f"/>
      <use x="299.751953" xlink:href="#DejaVuSans-6c"/>
      <use x="327.535156" xlink:href="#DejaVuSans-6f"/>
      <use x="388.716797" xlink:href="#DejaVuSans-67"/>
      <use x="452.193359" xlink:href="#DejaVuSans-69"/>
      <use x="479.976562" xlink:href="#DejaVuSans-63"/>
      <use x="534.957031" xlink:href="#DejaVuSans-61"/>
      <use x="596.236328" xlink:href="#DejaVuSans-6c"/>
      <use x="624.019531" xlink:href="#DejaVuSans-20"/>
      <use x="655.806641" xlink:href="#DejaVuSans-41"/>
      <use x="724.214844" xlink:href="#DejaVuSans-55"/>
      <use x="797.408203" xlink:href="#DejaVuSans-43"/>
      <use x="867.232422" xlink:href="#DejaVuSans-3d"/>
      <use x="951.021484" xlink:href="#DejaVuSans-30"/>
      <use x="1014.644531" xlink:href="#DejaVuSans-2e"/>
      <use x="1046.431641" xlink:href="#DejaVuSans-38"/>
      <use x="1110.054688" xlink:href="#DejaVuSans-35"/>
      <use x="1173.677734" xlink:href="#DejaVuSans-30"/>
      <use x="1237.300781" xlink:href="#DejaVuSans-33"/>
     </g>
    </g>
    <g id="line2d_35">
     <path d="M 228.680937 263.369937 
L 248.680937 263.369937 
" style="fill:none;stroke:#e377c2;stroke-linecap:square;stroke-width:1.5;"/>
    </g>
    <g id="line2d_36"/>
    <g id="text_21">
     <!-- Hyperglycaemia AUC=0.7913 -->
     <g transform="translate(256.680938 266.869937)scale(0.1 -0.1)">
      <defs>
       <path d="M 1159 525 
L 1159 -1331 
L 581 -1331 
L 581 3500 
L 1159 3500 
L 1159 2969 
Q 1341 3281 1617 3432 
Q 1894 3584 2278 3584 
Q 2916 3584 3314 3078 
Q 3713 2572 3713 1747 
Q 3713 922 3314 415 
Q 2916 -91 2278 -91 
Q 1894 -91 1617 61 
Q 1341 213 1159 525 
z
M 3116 1747 
Q 3116 2381 2855 2742 
Q 2594 3103 2138 3103 
Q 1681 3103 1420 2742 
Q 1159 2381 1159 1747 
Q 1159 1113 1420 752 
Q 1681 391 2138 391 
Q 2594 391 2855 752 
Q 3116 1113 3116 1747 
z
" id="DejaVuSans-70" transform="scale(0.015625)"/>
      </defs>
      <use xlink:href="#DejaVuSans-48"/>
      <use x="75.195312" xlink:href="#DejaVuSans-79"/>
      <use x="134.375" xlink:href="#DejaVuSans-70"/>
      <use x="197.851562" xlink:href="#DejaVuSans-65"/>
      <use x="259.375" xlink:href="#DejaVuSans-72"/>
      <use x="298.738281" xlink:href="#DejaVuSans-67"/>
      <use x="362.214844" xlink:href="#DejaVuSans-6c"/>
      <use x="389.998047" xlink:href="#DejaVuSans-79"/>
      <use x="449.177734" xlink:href="#DejaVuSans-63"/>
      <use x="504.158203" xlink:href="#DejaVuSans-61"/>
      <use x="565.4375" xlink:href="#DejaVuSans-65"/>
      <use x="626.960938" xlink:href="#DejaVuSans-6d"/>
      <use x="724.373047" xlink:href="#DejaVuSans-69"/>
      <use x="752.15625" xlink:href="#DejaVuSans-61"/>
      <use x="813.435547" xlink:href="#DejaVuSans-20"/>
      <use x="845.222656" xlink:href="#DejaVuSans-41"/>
      <use x="913.630859" xlink:href="#DejaVuSans-55"/>
      <use x="986.824219" xlink:href="#DejaVuSans-43"/>
      <use x="1056.648438" xlink:href="#DejaVuSans-3d"/>
      <use x="1140.4375" xlink:href="#DejaVuSans-30"/>
      <use x="1204.060547" xlink:href="#DejaVuSans-2e"/>
      <use x="1235.847656" xlink:href="#DejaVuSans-37"/>
      <use x="1299.470703" xlink:href="#DejaVuSans-39"/>
      <use x="1363.09375" xlink:href="#DejaVuSans-31"/>
      <use x="1426.716797" xlink:href="#DejaVuSans-33"/>
     </g>
    </g>
    <g id="line2d_37">
     <path d="M 228.680937 278.048062 
L 248.680937 278.048062 
" style="fill:none;stroke:#7f7f7f;stroke-linecap:square;stroke-width:1.5;"/>
    </g>
    <g id="line2d_38"/>
    <g id="text_22">
     <!-- Cardio_Vascular AUC=0.8236 -->
     <g transform="translate(256.680938 281.548062)scale(0.1 -0.1)">
      <defs>
       <path d="M 2906 2969 
L 2906 4863 
L 3481 4863 
L 3481 0 
L 2906 0 
L 2906 525 
Q 2725 213 2448 61 
Q 2172 -91 1784 -91 
Q 1150 -91 751 415 
Q 353 922 353 1747 
Q 353 2572 751 3078 
Q 1150 3584 1784 3584 
Q 2172 3584 2448 3432 
Q 2725 3281 2906 2969 
z
M 947 1747 
Q 947 1113 1208 752 
Q 1469 391 1925 391 
Q 2381 391 2643 752 
Q 2906 1113 2906 1747 
Q 2906 2381 2643 2742 
Q 2381 3103 1925 3103 
Q 1469 3103 1208 2742 
Q 947 2381 947 1747 
z
" id="DejaVuSans-64" transform="scale(0.015625)"/>
       <path d="M 3263 -1063 
L 3263 -1509 
L -63 -1509 
L -63 -1063 
L 3263 -1063 
z
" id="DejaVuSans-5f" transform="scale(0.015625)"/>
       <path d="M 1831 0 
L 50 4666 
L 709 4666 
L 2188 738 
L 3669 4666 
L 4325 4666 
L 2547 0 
L 1831 0 
z
" id="DejaVuSans-56" transform="scale(0.015625)"/>
      </defs>
      <use xlink:href="#DejaVuSans-43"/>
      <use x="69.824219" xlink:href="#DejaVuSans-61"/>
      <use x="131.103516" xlink:href="#DejaVuSans-72"/>
      <use x="170.466797" xlink:href="#DejaVuSans-64"/>
      <use x="233.943359" xlink:href="#DejaVuSans-69"/>
      <use x="261.726562" xlink:href="#DejaVuSans-6f"/>
      <use x="322.908203" xlink:href="#DejaVuSans-5f"/>
      <use x="372.908203" xlink:href="#DejaVuSans-56"/>
      <use x="433.566406" xlink:href="#DejaVuSans-61"/>
      <use x="494.845703" xlink:href="#DejaVuSans-73"/>
      <use x="546.945312" xlink:href="#DejaVuSans-63"/>
      <use x="601.925781" xlink:href="#DejaVuSans-75"/>
      <use x="665.304688" xlink:href="#DejaVuSans-6c"/>
      <use x="693.087891" xlink:href="#DejaVuSans-61"/>
      <use x="754.367188" xlink:href="#DejaVuSans-72"/>
      <use x="795.480469" xlink:href="#DejaVuSans-20"/>
      <use x="827.267578" xlink:href="#DejaVuSans-41"/>
      <use x="895.675781" xlink:href="#DejaVuSans-55"/>
      <use x="968.869141" xlink:href="#DejaVuSans-43"/>
      <use x="1038.693359" xlink:href="#DejaVuSans-3d"/>
      <use x="1122.482422" xlink:href="#DejaVuSans-30"/>
      <use x="1186.105469" xlink:href="#DejaVuSans-2e"/>
      <use x="1217.892578" xlink:href="#DejaVuSans-38"/>
      <use x="1281.515625" xlink:href="#DejaVuSans-32"/>
      <use x="1345.138672" xlink:href="#DejaVuSans-33"/>
      <use x="1408.761719" xlink:href="#DejaVuSans-36"/>
     </g>
    </g>
    <g id="line2d_39">
     <path d="M 228.680937 293.004312 
L 248.680937 293.004312 
" style="fill:none;stroke:#bcbd22;stroke-linecap:square;stroke-width:1.5;"/>
    </g>
    <g id="line2d_40"/>
    <g id="text_23">
     <!-- Inflammatory AUC=0.8980 -->
     <g transform="translate(256.680938 296.504312)scale(0.1 -0.1)">
      <defs>
       <path d="M 628 4666 
L 1259 4666 
L 1259 0 
L 628 0 
L 628 4666 
z
" id="DejaVuSans-49" transform="scale(0.015625)"/>
       <path d="M 2375 4863 
L 2375 4384 
L 1825 4384 
Q 1516 4384 1395 4259 
Q 1275 4134 1275 3809 
L 1275 3500 
L 2222 3500 
L 2222 3053 
L 1275 3053 
L 1275 0 
L 697 0 
L 697 3053 
L 147 3053 
L 147 3500 
L 697 3500 
L 697 3744 
Q 697 4328 969 4595 
Q 1241 4863 1831 4863 
L 2375 4863 
z
" id="DejaVuSans-66" transform="scale(0.015625)"/>
      </defs>
      <use xlink:href="#DejaVuSans-49"/>
      <use x="29.492188" xlink:href="#DejaVuSans-6e"/>
      <use x="92.871094" xlink:href="#DejaVuSans-66"/>
      <use x="128.076172" xlink:href="#DejaVuSans-6c"/>
      <use x="155.859375" xlink:href="#DejaVuSans-61"/>
      <use x="217.138672" xlink:href="#DejaVuSans-6d"/>
      <use x="314.550781" xlink:href="#DejaVuSans-6d"/>
      <use x="411.962891" xlink:href="#DejaVuSans-61"/>
      <use x="473.242188" xlink:href="#DejaVuSans-74"/>
      <use x="512.451172" xlink:href="#DejaVuSans-6f"/>
      <use x="573.632812" xlink:href="#DejaVuSans-72"/>
      <use x="614.746094" xlink:href="#DejaVuSans-79"/>
      <use x="673.925781" xlink:href="#DejaVuSans-20"/>
      <use x="705.712891" xlink:href="#DejaVuSans-41"/>
      <use x="774.121094" xlink:href="#DejaVuSans-55"/>
      <use x="847.314453" xlink:href="#DejaVuSans-43"/>
      <use x="917.138672" xlink:href="#DejaVuSans-3d"/>
      <use x="1000.927734" xlink:href="#DejaVuSans-30"/>
      <use x="1064.550781" xlink:href="#DejaVuSans-2e"/>
      <use x="1096.337891" xlink:href="#DejaVuSans-38"/>
      <use x="1159.960938" xlink:href="#DejaVuSans-39"/>
      <use x="1223.583984" xlink:href="#DejaVuSans-38"/>
      <use x="1287.207031" xlink:href="#DejaVuSans-30"/>
     </g>
    </g>
   </g>
  </g>
 </g>
 <defs>
  <clipPath id="p54d3bf378d">
   <rect height="266.112" width="357.12" x="57.6" y="41.472"/>
  </clipPath>
 </defs>
</svg>
